<?xml version="1.0" encoding="UTF-8"?>
<svg id="ok" xmlns="http://www.w3.org/2000/svg" xmlns:xlink="http://www.w3.org/1999/xlink" viewBox="0 0 1920 738">
  <defs>
    <style>
      .cls-1 {
        fill: #047750;
      }

      .cls-1, .cls-2, .cls-3, .cls-4, .cls-5, .cls-6, .cls-7, .cls-8, .cls-9, .cls-10, .cls-11, .cls-12, .cls-13, .cls-14, .cls-15, .cls-16, .cls-17, .cls-18, .cls-19, .cls-20, .cls-21, .cls-22, .cls-23, .cls-24, .cls-25, .cls-26, .cls-27, .cls-28, .cls-29, .cls-30, .cls-31, .cls-32, .cls-33, .cls-34, .cls-35, .cls-36, .cls-37, .cls-38, .cls-39, .cls-40, .cls-41, .cls-42, .cls-43, .cls-44, .cls-45, .cls-46, .cls-47, .cls-48, .cls-49, .cls-50, .cls-51, .cls-52, .cls-53, .cls-54, .cls-55, .cls-56, .cls-57, .cls-58, .cls-59, .cls-60, .cls-61, .cls-62, .cls-63, .cls-64, .cls-65 {
        stroke-width: 0px;
      }

      .cls-2 {
        fill: #1f2f59;
      }

      .cls-3 {
        fill: #009366;
      }

      .cls-66 {
        stroke-width: 1.38px;
      }

      .cls-66, .cls-67 {
        stroke: #e0884c;
      }

      .cls-66, .cls-67, .cls-68, .cls-69, .cls-26, .cls-70, .cls-71, .cls-72, .cls-73, .cls-74 {
        fill: none;
      }

      .cls-66, .cls-67, .cls-68, .cls-69, .cls-71, .cls-73 {
        stroke-miterlimit: 10;
      }

      .cls-4 {
        fill: #008e5c;
      }

      .cls-67 {
        stroke-width: 1.15px;
      }

      .cls-5 {
        fill: #f1c100;
      }

      .cls-68 {
        stroke: #00aa7b;
      }

      .cls-68, .cls-69, .cls-70, .cls-71, .cls-72, .cls-73, .cls-74 {
        stroke-linecap: round;
      }

      .cls-68, .cls-71 {
        stroke-width: 3.54px;
      }

      .cls-6 {
        fill: #f2ac66;
      }

      .cls-6, .cls-36, .cls-50, .cls-56 {
        isolation: isolate;
      }

      .cls-7 {
        fill: #ffcf03;
      }

      .cls-8 {
        fill: #fcfcfe;
      }

      .cls-9 {
        fill: #10aa7a;
      }

      .cls-10 {
        fill: #f9eec3;
      }

      .cls-11 {
        fill: #fff6db;
      }

      .cls-12 {
        fill: #bf6325;
      }

      .cls-13 {
        fill: #087c52;
      }

      .cls-14 {
        fill: #fffeff;
      }

      .cls-75 {
        clip-path: url(#clippath-2);
      }

      .cls-15 {
        fill: #ffd127;
      }

      .cls-16 {
        fill: #edf6fa;
      }

      .cls-17 {
        fill: #92521d;
      }

      .cls-69 {
        stroke-width: 4.04px;
      }

      .cls-69, .cls-73 {
        stroke: #fff;
      }

      .cls-18 {
        fill: #3861a8;
      }

      .cls-19 {
        fill: #a46411;
      }

      .cls-76 {
        clip-path: url(#clippath-6);
      }

      .cls-20 {
        fill: #fbdb15;
      }

      .cls-21 {
        fill: #00a77b;
      }

      .cls-22 {
        fill: #016340;
      }

      .cls-23 {
        opacity: .1;
      }

      .cls-23, .cls-53 {
        fill: #08885f;
      }

      .cls-24 {
        fill: #39ac83;
      }

      .cls-25 {
        fill: #01a67a;
      }

      .cls-27 {
        fill: #9fcfaa;
      }

      .cls-77 {
        clip-path: url(#clippath-7);
      }

      .cls-78 {
        clip-path: url(#clippath-1);
      }

      .cls-28 {
        fill: #ffde52;
      }

      .cls-79 {
        clip-path: url(#clippath-4);
      }

      .cls-29 {
        fill: #fffdfd;
      }

      .cls-30 {
        fill: #c97e12;
      }

      .cls-31 {
        fill: #e0884c;
      }

      .cls-32 {
        fill: #49b492;
      }

      .cls-33 {
        fill: #fbbb0d;
      }

      .cls-34 {
        fill: #803b10;
      }

      .cls-70 {
        stroke: #ffed9f;
      }

      .cls-70, .cls-72, .cls-74 {
        stroke-linejoin: round;
      }

      .cls-70, .cls-74 {
        stroke-width: 3.52px;
      }

      .cls-35 {
        fill: #f4efef;
      }

      .cls-36 {
        fill: #f4942c;
      }

      .cls-37 {
        fill: #00a379;
      }

      .cls-38 {
        fill: #fad714;
      }

      .cls-39 {
        fill: #ebf4f8;
      }

      .cls-40 {
        fill: #ffdb3b;
      }

      .cls-41 {
        fill: #ffd134;
      }

      .cls-42 {
        fill: #59c67b;
      }

      .cls-80 {
        clip-path: url(#clippath-9);
      }

      .cls-43 {
        fill: #edf5f8;
      }

      .cls-81 {
        clip-path: url(#clippath);
      }

      .cls-44 {
        fill: #0d8a60;
      }

      .cls-45 {
        fill: #b6c91d;
      }

      .cls-71 {
        stroke: #009366;
      }

      .cls-46 {
        fill: #bc770a;
        opacity: .25;
      }

      .cls-47 {
        fill: #f8d513;
      }

      .cls-82 {
        clip-path: url(#clippath-3);
      }

      .cls-48 {
        fill: #ef7511;
      }

      .cls-49 {
        fill: #f2b128;
      }

      .cls-72 {
        stroke: #001036;
        stroke-width: .73px;
      }

      .cls-83 {
        clip-path: url(#clippath-8);
      }

      .cls-50 {
        fill: #f9ba76;
      }

      .cls-51 {
        fill: #00aa7b;
      }

      .cls-73 {
        stroke-width: 6.48px;
      }

      .cls-52, .cls-57 {
        fill: #fff;
      }

      .cls-54 {
        fill: #f5bb11;
      }

      .cls-84 {
        clip-path: url(#clippath-5);
      }

      .cls-74 {
        stroke: #ffde52;
      }

      .cls-55 {
        fill: #087d54;
      }

      .cls-56 {
        fill: #f08217;
      }

      .cls-57, .cls-58 {
        opacity: .5;
      }

      .cls-58 {
        fill: #54dbae;
      }

      .cls-85 {
        clip-path: url(#clippath-10);
      }

      .cls-59 {
        fill: #afb21e;
      }

      .cls-60 {
        fill: #f3f8fb;
      }

      .cls-61 {
        fill: #c16b27;
      }

      .cls-62 {
        fill: #a2d1ad;
      }

      .cls-63 {
        fill: #fdec83;
      }

      .cls-64 {
        fill: #001036;
      }

      .cls-65 {
        fill: #3a63a8;
      }
    </style>
    <clipPath id="clippath">
      <rect class="cls-26" width="1920" height="738"/>
    </clipPath>
    <clipPath id="clippath-1">
      <rect class="cls-26" x="0" y="-271" width="1920" height="1280"/>
    </clipPath>
    <clipPath id="clippath-2">
      <rect class="cls-26" x="-125.39" y="-354.77" width="2172.23" height="1447.55"/>
    </clipPath>
    <clipPath id="clippath-3">
      <circle class="cls-26" cx="1473.79" cy="368.94" r="68.15"/>
    </clipPath>
    <clipPath id="clippath-4">
      <path class="cls-26" d="M1802.03,69.06c120.77,4.78,123.9-73.92,124.03-77.69l.23-.19,17.72-11.45-1.28-1.98-140.86,91.07.16.25Z"/>
    </clipPath>
    <clipPath id="clippath-5">
      <path class="cls-26" d="M1801.89,68.86c45.21-112.09,118.16-82.8,121.65-81.36l.17-.28,17.72-11.45,1.28,1.98-140.86,91.07.03.05Z"/>
    </clipPath>
    <clipPath id="clippath-6">
      <path class="cls-26" d="M1876.13,142.44c103.6-62.26,63.05-129.77,61.08-132.99l.09-.29,8.53-19.3-2.16-.96-67.82,153.41.28.12Z"/>
    </clipPath>
    <clipPath id="clippath-7">
      <path class="cls-26" d="M1875.91,142.34c-23.68-118.52,53.38-134.04,57.09-134.76v-.33s8.52-19.3,8.52-19.3l2.16.96-67.82,153.41.05.02Z"/>
    </clipPath>
    <clipPath id="clippath-8">
      <rect class="cls-26" y="830.91" width="1920" height="738"/>
    </clipPath>
    <clipPath id="clippath-9">
      <rect class="cls-26" x="0" y="559.91" width="1920" height="1280"/>
    </clipPath>
    <clipPath id="clippath-10">
      <rect class="cls-26" x="-125.39" y="476.13" width="2172.23" height="1447.55"/>
    </clipPath>
  </defs>
  <g id="full">
    <g class="cls-81">
      <rect class="cls-48" width="1920" height="738"/>
      <g class="cls-78">
        <rect class="cls-36" x="-125.39" y="-354.77" width="2172.23" height="1447.55"/>
        <g class="cls-75">
          <circle class="cls-36" cx="960.73" cy="369" r="901.93"/>
        </g>
        <circle class="cls-56" cx="959.89" cy="369" r="727.49"/>
        <circle class="cls-48" cx="960" cy="369" r="448.62"/>
      </g>
      <g>
        <path class="cls-40" d="M1371.88,483.64h0s5.72,9.3,5.72,9.3c.56.91.24,2.12-.66,2.68-.91.56-2.1.29-2.68-.61h0s-5.7-9.32-5.7-9.32c-.56-.91-.26-2.11.65-2.67.91-.56,2.09-.28,2.67.62Z"/>
        <path class="cls-40" d="M1386.8,486.84c.52.84.32,1.96-.49,2.56-.85.64-2.06.46-2.7-.4l-6.51-8.76c-.64-.86-.46-2.06.4-2.7.85-.64,2.06-.46,2.7.4l6.51,8.76s.07.09.09.14Z"/>
        <path class="cls-40" d="M1394.52,476.16c.42.69.38,1.59-.16,2.24-.68.82-1.9.93-2.72.25l-8.4-6.98c-.82-.68-.93-1.9-.25-2.72.68-.82,1.9-.93,2.72-.25l8.4,6.98c.17.14.3.3.41.47Z"/>
        <path class="cls-40" d="M1399.84,469.61c.56.86.47,1.91-.39,2.5-.88.6-1.99.31-2.59-.57l-6.08-9.07c-.59-.88-.34-2.09.54-2.69.88-.6,1.92-.26,2.52.62l5.96,9.15.05.07Z"/>
        <path class="cls-40" d="M1405.64,454.83c.12.19.21.41.25.65l2.04,10.73c.2,1.05-.49,2.06-1.53,2.25-1.05.2-2.05-.49-2.25-1.53l-2.04-10.73c-.2-1.05.49-2.06,1.53-2.25.81-.15,1.59.22,2,.88Z"/>
        <path class="cls-40" d="M1418.41,455.39c.24.39.35.87.25,1.36l-1.99,10.74c-.19,1.05-1.2,1.74-2.25,1.54-1.05-.19-1.74-1.2-1.54-2.25l1.99-10.74c.19-1.05,1.2-1.74,2.25-1.54.56.1,1.01.44,1.29.88Z"/>
        <path class="cls-40" d="M1430.46,462.63c.47.76.36,1.77-.32,2.41l-7.93,7.5c-.77.73-1.99.7-2.73-.08-.73-.77-.7-1.99.08-2.73l7.93-7.5c.77-.73,1.99-.7,2.73.08.09.1.17.2.24.31Z"/>
        <path class="cls-40" d="M1437.35,475.73c.06.11.12.22.16.34.37,1-.13,2.11-1.13,2.48l-10.22,3.83c-1,.37-2.11-.13-2.48-1.13-.37-1,.13-2.11,1.13-2.48l10.22-3.83c.88-.33,1.84.02,2.32.79Z"/>
        <path class="cls-40" d="M1435.77,490.58c.24.39.34.87.26,1.36-.19,1.05-1.2,1.74-2.24,1.55l-10.74-1.96c-1.05-.19-1.74-1.2-1.55-2.24.19-1.05,1.2-1.74,2.24-1.55l10.74,1.96c.56.1,1.02.44,1.29.88Z"/>
        <path class="cls-40" d="M1430.38,504.05c.36.58.4,1.33.03,1.97-.53.92-1.71,1.25-2.63.72l-9.48-5.41c-.92-.53-1.25-1.71-.72-2.63.53-.92,1.71-1.25,2.63-.72l9.48,5.41c.29.17.52.4.69.66Z"/>
        <path class="cls-40" d="M1421.77,513.31c.5.82.33,1.9-.44,2.52-.83.66-2.05.53-2.71-.31l-6.81-8.54c-.67-.84-.53-2.05.31-2.71.83-.66,2.05-.53,2.71.31l6.81,8.54c.05.06.09.13.13.19Z"/>
        <path class="cls-40" d="M1406.09,508.77c.08.13.14.27.19.42l3.39,10.38c.33,1.01-.22,2.1-1.23,2.43-1.01.33-2.1-.22-2.43-1.23l-3.39-10.38c-.33-1.01.22-2.1,1.23-2.43.86-.28,1.78.08,2.24.82Z"/>
        <path class="cls-40" d="M1395.51,510.81c.13.21.22.45.26.71l1.69,10.79c.17,1.05-.55,2.04-1.61,2.2-1.05.17-2.04-.55-2.2-1.61l-1.69-10.79c-.17-1.05.55-2.04,1.61-2.2.79-.12,1.55.25,1.94.89Z"/>
        <path class="cls-40" d="M1372.94,496.39c.29.48.38,1.08.18,1.65-.35,1-1.45,1.53-2.46,1.18l-10.3-3.62c-1.01-.35-1.53-1.45-1.18-2.46.35-1,1.45-1.53,2.46-1.18l10.3,3.62c.43.15.78.44,1,.81Z"/>
        <path class="cls-40" d="M1372.76,501.5c.06.1.12.21.16.32.38.99-.11,2.11-1.11,2.49l-10.19,3.92c-.99.38-2.11-.11-2.49-1.11-.38-.99.11-2.11,1.11-2.49l10.19-3.92c.88-.34,1.85.01,2.33.79Z"/>
        <path class="cls-40" d="M1376.76,505.72c.37.59.4,1.37.01,2.01l-5.62,9.36c-.55.91-1.73,1.21-2.65.66-.91-.55-1.21-1.73-.66-2.65l5.62-9.36c.55-.91,1.73-1.21,2.65-.66.27.16.49.39.65.64Z"/>
        <path class="cls-40" d="M1385.18,509.5c.21.33.31.74.28,1.16l-.83,10.89c-.08,1.06-1.01,1.86-2.07,1.78-1.06-.08-1.86-1.01-1.78-2.07l.83-10.89c.08-1.06,1.01-1.86,2.07-1.78.64.05,1.18.4,1.5.91Z"/>
        <path class="cls-60" d="M1429.4,487.05c2.71-11.43-4.36-22.88-15.79-25.59-11.01-2.61-22.05,3.86-25.26,14.56-.47,1.01-.94,2.01-1.45,3-1.98,3.81-4.57,7.04-8.89,8.41-3.2,1.02-6.58,1.65-9.08,4.09-2.99,2.92-4.2,7.53-3.04,11.54,1.81,6.23,7.85,10.46,13.78,12.27,5.62,1.71,12.82,2.67,18.64,1.59,9.91-1.85,18.83-8.11,24.66-16.16,2.81-3.88,5.28-8.42,6.29-13.2.05-.17.09-.34.14-.51Z"/>
        <circle class="cls-49" cx="1381.66" cy="498.66" r="3.65"/>
        <circle class="cls-49" cx="1400.06" cy="503.02" r="3.65"/>
        <circle class="cls-49" cx="1409.26" cy="480.02" r="8.38"/>
      </g>
      <g>
        <g>
          <path class="cls-40" d="M1364.81,426.01c-.65.9-.59,2.16.21,2.99,1.54,1.62,2.97,3.37,4.26,5.2l.13.19c.46.67.99,1.42,1.72,2.1.95.88,2.44.83,3.32-.12.89-.95.83-2.44-.12-3.32-.35-.33-.69-.82-1.06-1.34l-.14-.2c-1.42-2.03-3-3.96-4.7-5.75-.9-.94-2.38-.98-3.33-.08-.11.1-.2.21-.29.33Z"/>
          <path class="cls-40" d="M1365.41,412.48c-.17.23-.29.49-.37.78-.33,1.26.42,2.54,1.68,2.87.62.16,1.27.43,1.96.72l5.87,2.43c1.2.5,2.58-.08,3.07-1.28.5-1.2-.08-2.58-1.28-3.07l-5.87-2.43c-.8-.33-1.64-.68-2.57-.92-.97-.25-1.95.14-2.5.9Z"/>
          <path class="cls-40" d="M1366.67,395.3c-.09.13-.17.27-.24.41-.53,1.19,0,2.58,1.18,3.11l6.7,3.01c1.19.53,2.58,0,3.11-1.18.53-1.18,0-2.58-1.18-3.11l-6.7-3.01c-1.04-.47-2.23-.12-2.87.77Z"/>
          <path class="cls-40" d="M1378.75,382.08c1.24,2.23,2.4,4.55,3.43,6.89.53,1.19,1.91,1.73,3.1,1.2,1.19-.53,1.73-1.91,1.2-3.1-1-2.26-2.11-4.5-3.29-6.68-.05-.13-.11-.25-.19-.37l-.2-.32-4.05,2.38Z"/>
          <path class="cls-40" d="M1399.03,368.07l-2.12,5.6c-.4,1.05-.17,2.23.57,3.06l2.37,5.8c.49,1.2,1.86,1.78,3.07,1.29,1.2-.49,1.78-1.86,1.29-3.07l-5.18-12.67Z"/>
          <path class="cls-40" d="M1411.24,366.69c-.69.96-.57,2.31.33,3.12,1.33,1.2,2.58,2.51,3.73,3.88.83,1,2.32,1.13,3.31.3,1-.83,1.13-2.32.3-3.31-1.29-1.54-2.7-3.01-4.18-4.36-.96-.87-2.45-.8-3.32.17-.06.07-.12.13-.17.2Z"/>
          <path class="cls-40" d="M1414.83,355.72c-.29.4-.46.9-.44,1.44.03,1.3,1.12,2.32,2.41,2.29,2.06-.06,4.13.02,6.17.22,1.29.13,2.44-.82,2.57-2.11.13-1.29-.82-2.44-2.11-2.57-2.23-.22-4.5-.3-6.75-.24-.76.02-1.43.4-1.85.98Z"/>
          <path class="cls-40" d="M1412.67,338.88c-1.24,1.71-2.32,3.55-3.23,5.45-.56,1.17-.06,2.58,1.11,3.14,1.17.56,2.58.06,3.14-1.11.84-1.76,1.86-3.44,3.01-5.01.81-1.05.55-2.52-.49-3.29-1.04-.77-2.52-.55-3.29.49-.08.11-.16.22-.24.33Z"/>
          <path class="cls-40" d="M1386.63,336.85c-.39.54-.55,1.24-.38,1.93l1.47,6.08c.31,1.26,1.58,2.04,2.84,1.73,1.26-.3,2.04-1.58,1.73-2.84l-1.47-6.08c-.31-1.26-1.58-2.04-2.84-1.73-.57.14-1.04.47-1.35.91Z"/>
          <path class="cls-40" d="M1357.3,345.08c-.49.68-.6,1.6-.21,2.41,1.67,3.43,3.56,6.82,5.6,10.06.69,1.1,2.14,1.43,3.24.74,1.1-.69,1.43-2.14.74-3.24-1.95-3.1-3.75-6.33-5.35-9.61-.57-1.17-1.98-1.65-3.15-1.08-.36.18-.66.43-.88.74Z"/>
          <path class="cls-40" d="M1335.56,364.4c-.59.82-.61,1.96.04,2.8,2.34,3.07,5.08,5.8,8.17,8.12,1.04.78,2.51.57,3.29-.47.77-1.04.57-2.51-.47-3.29-2.74-2.05-5.17-4.48-7.25-7.2-.79-1.03-2.26-1.23-3.3-.45-.19.14-.35.31-.48.5Z"/>
          <path class="cls-40" d="M1325.28,388.29c-.15.21-.27.44-.34.7-.38,1.24.33,2.56,1.57,2.93l9.2,2.78c1.24.38,2.56-.33,2.93-1.57.38-1.24-.33-2.56-1.57-2.93l-9.2-2.78c-.99-.3-2.02.08-2.59.88Z"/>
          <path class="cls-40" d="M1326.75,414.88c-.32.44-.48.99-.44,1.57.11,1.29,1.24,2.26,2.54,2.15,3.5-.29,6.98-.94,10.34-1.92,1.25-.37,1.96-1.67,1.6-2.92-.37-1.25-1.67-1.96-2.92-1.59-3.06.9-6.23,1.49-9.41,1.75-.71.06-1.33.43-1.72.97Z"/>
          <path class="cls-40" d="M1338.23,436.49c-.7.97-.56,2.33.35,3.14.97.86,2.46.77,3.32-.2l6.02-6.81c.86-.98.77-2.46-.2-3.32-.97-.86-2.46-.77-3.32.2l-6.02,6.81c-.05.06-.1.12-.15.18Z"/>
          <path class="cls-40" d="M1355.27,431.6c-.36.5-.53,1.15-.4,1.81.82,4.41,1.48,8.92,1.95,13.39.14,1.29,1.29,2.23,2.59,2.09,1.29-.14,2.23-1.29,2.09-2.59-.49-4.6-1.16-9.22-2-13.76-.24-1.28-1.47-2.12-2.74-1.88-.62.11-1.14.46-1.48.94Z"/>
          <path class="cls-20" d="M1405.35,341.59c7.67,1.7,14.88,7.98,15.06,15.83.22,8.97-8.29,15.71-16.68,18.87-8.39,3.16-17.74,4.46-24.86,9.91-12.23,9.36-7.81,20.02-7.95,31.61.04.31.07.62.09.93.25,3.72-.72,7.24-2.56,10.18-.17.28-.34.54-.53.8-.05.07-.09.14-.14.2-.1.14-.2.28-.31.41-2.89,3.74-7.32,6.24-12.41,6.57-7.02.46-13.42-3.33-16.44-9.23h0s-6.18-12.42-6.11-28.7c-.12-16.44,6.78-33.13,20-42.42,13.31-9.34,36.42-18.61,52.83-14.97Z"/>
          <g>
            <circle class="cls-49" cx="1353.6" cy="421.3" r="4.19"/>
            <circle class="cls-49" cx="1360.74" cy="400.72" r="4.19"/>
            <circle class="cls-49" cx="1342.25" cy="398.92" r="4.19"/>
            <circle class="cls-49" cx="1351.48" cy="374" r="4.19"/>
            <circle class="cls-49" cx="1374.32" cy="373.87" r="4.19"/>
            <circle class="cls-49" cx="1387.73" cy="355.34" r="4.19"/>
            <circle class="cls-49" cx="1407.74" cy="360.88" r="4.19"/>
          </g>
        </g>
        <g>
          <g>
            <rect class="cls-52" x="1551.22" y="327.83" width="24.58" height="40.13" transform="translate(1554.29 -1253.82) rotate(77.13)"/>
            <rect class="cls-51" x="1637.99" y="240.06" width="41.08" height="172.24" rx="20.54" ry="20.54" transform="translate(1606.97 -1363.33) rotate(77.13)"/>
            <path class="cls-37" d="M1742.48,306.99h0c2.53,11.06-4.39,22.07-15.45,24.6l-127.86,29.22c-11.06,2.53-22.07-4.39-24.6-15.45l167.91-38.38Z"/>
          </g>
          <path class="cls-1" d="M1497.44,447.73h0c-43.44,12.84-89.22-12.05-102.06-55.49-12.84-43.44,12.06-89.22,55.49-102.06,21.04-6.22,43.24-3.87,62.52,6.61,19.28,10.48,33.32,27.84,39.54,48.88,6.22,21.04,3.87,43.24-6.61,62.52-6.71,12.34-16.23,22.53-27.74,29.9-6.47,4.15-13.57,7.4-21.15,9.64Z"/>
          <circle class="cls-52" cx="1474.15" cy="368.96" r="68.15"/>
        </g>
        <g class="cls-82">
          <g>
            <path class="cls-40" d="M1348.35,435.59c-1.56.81-2.36,2.64-1.84,4.38,1.03,3.38,1.81,6.87,2.32,10.37l.05.36c.18,1.27.39,2.71.94,4.18.72,1.92,2.86,2.9,4.78,2.19,1.93-.71,2.9-2.86,2.19-4.78-.27-.72-.4-1.65-.54-2.64l-.05-.38c-.56-3.87-1.43-7.72-2.56-11.46-.6-1.97-2.67-3.08-4.64-2.48-.23.07-.44.16-.64.26Z"/>
            <path class="cls-40" d="M1358.8,416.9c-.4.21-.76.49-1.07.84-1.36,1.54-1.21,3.89.34,5.25.77.67,1.49,1.51,2.27,2.4l6.58,7.6c1.34,1.55,3.7,1.72,5.25.38,1.55-1.34,1.72-3.69.38-5.25l-6.58-7.6c-.9-1.04-1.83-2.11-2.98-3.12-1.19-1.04-2.85-1.19-4.18-.5Z"/>
            <path class="cls-40" d="M1372.79,393.52c-.22.11-.43.25-.63.42-1.59,1.3-1.83,3.64-.54,5.23l7.33,9.01c1.3,1.59,3.63,1.84,5.23.54,1.59-1.3,1.83-3.64.53-5.23l-7.33-9.01c-1.13-1.39-3.07-1.75-4.6-.95Z"/>
            <path class="cls-40" d="M1399.23,383.42c.17,4.04.16,8.13-.04,12.16-.1,2.05,1.48,3.8,3.53,3.9,2.05.1,3.8-1.48,3.9-3.53.19-3.9.22-7.85.08-11.77.02-.21.02-.43,0-.66l-.05-.59-7.42.49Z"/>
            <path class="cls-40" d="M1437.83,378.02l-6.96,6.4c-1.3,1.2-1.82,3.04-1.37,4.72l-.77,9.87c-.16,2.05,1.37,3.84,3.42,4,2.05.16,3.84-1.37,4-3.42l1.68-21.58Z"/>
            <path class="cls-40" d="M1456.06,384.74c-1.66.86-2.44,2.86-1.74,4.64,1.02,2.64,1.87,5.37,2.51,8.13.47,2,2.47,3.24,4.47,2.77,2-.47,3.24-2.47,2.77-4.47-.72-3.1-1.67-6.17-2.82-9.13-.74-1.91-2.9-2.87-4.81-2.12-.13.05-.26.11-.38.17Z"/>
            <path class="cls-40" d="M1468.92,371.78c-.7.36-1.29.95-1.65,1.72-.87,1.86-.07,4.07,1.79,4.95,2.94,1.38,5.82,2.96,8.56,4.69,1.74,1.1,4.03.58,5.13-1.16,1.1-1.74.58-4.03-1.16-5.13-3-1.89-6.15-3.62-9.37-5.13-1.09-.51-2.31-.45-3.3.07Z"/>
            <path class="cls-40" d="M1477.82,346.46c-2.96,1.55-5.8,3.36-8.44,5.41-1.62,1.26-1.92,3.6-.66,5.22,1.26,1.62,3.6,1.92,5.22.66,2.43-1.89,5.07-3.55,7.81-4.95,1.89-.91,2.57-3.17,1.64-5-.93-1.83-3.17-2.57-5-1.64-.19.1-.38.2-.57.29Z"/>
            <path class="cls-40" d="M1442.46,325.11c-.93.49-1.65,1.36-1.91,2.46l-2.23,9.63c-.46,2,.78,4,2.78,4.46,2,.47,4-.78,4.46-2.78l2.23-9.63c.46-2-.78-4-2.78-4.46-.9-.21-1.8-.07-2.56.32Z"/>
            <path class="cls-40" d="M1395.19,315.91c-1.18.61-1.99,1.84-2,3.26-.07,6.04.19,12.16.77,18.18.2,2.04,2.01,3.54,4.06,3.34,2.04-.2,3.54-2.01,3.35-4.06-.56-5.76-.8-11.61-.73-17.38.02-2.05-1.62-3.74-3.67-3.76-.64,0-1.24.15-1.76.42Z"/>
            <path class="cls-40" d="M1350.76,327.78c-1.41.74-2.24,2.33-1.94,3.98,1.12,6,3.06,11.8,5.78,17.26.91,1.84,3.15,2.59,4.99,1.68,1.83-.92,2.59-3.15,1.68-4.99-2.41-4.85-4.13-10-5.13-15.32-.38-2.02-2.32-3.35-4.34-2.97-.37.07-.72.19-1.04.36Z"/>
            <path class="cls-40" d="M1319.28,354.25c-.36.19-.69.43-.98.74-1.41,1.49-1.35,3.84.14,5.26l11.02,10.45c1.49,1.41,3.84,1.35,5.26-.14,1.41-1.49,1.35-3.84-.14-5.26l-11.02-10.45c-1.18-1.12-2.91-1.31-4.28-.6Z"/>
            <path class="cls-40" d="M1302.47,392.85c-.76.39-1.38,1.05-1.73,1.91-.77,1.9.15,4.07,2.06,4.84,5.15,2.07,10.52,3.63,15.98,4.62,2.02.37,3.96-.97,4.33-2.99.37-2.02-.97-3.96-2.99-4.33-4.96-.9-9.85-2.32-14.53-4.21-1.05-.42-2.18-.33-3.11.15Z"/>
            <path class="cls-40" d="M1303.37,431.53c-1.67.87-2.45,2.89-1.73,4.68.76,1.91,2.93,2.83,4.84,2.07l13.35-5.35c1.91-.77,2.83-2.93,2.07-4.84-.76-1.91-2.93-2.83-4.84-2.07l-13.35,5.35c-.12.05-.23.1-.34.16Z"/>
            <path class="cls-40" d="M1330.9,436.72c-.87.45-1.56,1.25-1.85,2.26-1.97,6.82-4.24,13.65-6.75,20.3-.72,1.92.25,4.07,2.17,4.79,1.92.73,4.07-.25,4.79-2.17,2.58-6.84,4.91-13.85,6.94-20.86.57-1.97-.57-4.04-2.54-4.61-.96-.28-1.93-.15-2.75.27Z"/>
            <path class="cls-20" d="M1465.55,345.08c9.62,7.84,15.35,21.83,10.05,33.06-6.06,12.82-22.86,16.31-36.96,14.83-14.1-1.49-28.23-6.29-42.16-3.64-23.92,4.54-25.25,22.75-33.67,39.02-.17.46-.34.92-.54,1.38-2.29,5.43-6.16,9.72-10.84,12.56-.43.27-.87.52-1.31.75-.12.06-.23.12-.35.18-.24.12-.48.25-.73.36-6.74,3.23-14.76,3.62-22.19.48-10.25-4.33-16.6-14.23-16.68-24.71h0s.08-21.93,11.74-44.88c11.5-23.31,33.1-42,58.37-45.74,25.44-3.76,64.66-.44,85.27,16.35Z"/>
            <g>
              <circle class="cls-49" cx="1335.86" cy="420.97" r="6.63"/>
              <circle class="cls-49" cx="1360.56" cy="396.97" r="6.63"/>
              <circle class="cls-49" cx="1335.71" cy="381.31" r="6.63"/>
              <circle class="cls-49" cx="1366.44" cy="352.65" r="6.63"/>
              <circle class="cls-49" cx="1398.81" cy="368.67" r="6.63"/>
              <circle class="cls-49" cx="1430.89" cy="352.02" r="6.63"/>
              <circle class="cls-49" cx="1455.24" cy="374.04" r="6.63"/>
            </g>
          </g>
        </g>
      </g>
      <g>
        <polygon class="cls-21" points="1824.01 382.47 1821.14 355.86 1795.07 364.58 1856.15 265.76 1885.09 283.65 1824.01 382.47"/>
        <polygon class="cls-42" points="1884.16 389.9 1867.37 372.53 1853.62 393.2 1842.37 288.9 1872.91 285.61 1884.16 389.9"/>
        <g>
          <path class="cls-37" d="M1923.77,274.38c.96-5.13-3.11-10.47-3.49-15.45-.39-5.14,2.78-11.04,1.1-15.8-1.7-4.82-7.9-7.42-10.77-11.62-2.87-4.19-3.05-10.91-6.93-14.24-3.83-3.29-10.47-2.46-15.13-4.69-4.5-2.15-8-7.88-13.14-8.84,0,0-.03,0-.03,0l-22.28,118.99s.02,0,.03,0c5.13.96,10.47-3.11,15.45-3.49,5.14-.39,11.04,2.78,15.8,1.1,4.82-1.7,7.42-7.9,11.62-10.77,4.19-2.87,10.91-3.05,14.24-6.93,3.29-3.82,2.46-10.47,4.69-15.13,2.15-4.5,7.88-8,8.84-13.14Z"/>
          <path class="cls-1" d="M1859.97,207.23c-5.14.39-11.04-2.78-15.8-1.1-4.82,1.7-7.42,7.9-11.62,10.77-4.19,2.87-10.91,3.05-14.24,6.93-3.29,3.83-2.46,10.47-4.69,15.13-2.15,4.5-7.88,8-8.84,13.14s3.11,10.47,3.49,15.45c.39,5.14-2.78,11.04-1.1,15.8,1.7,4.82,7.9,7.42,10.77,11.62,2.87,4.19,3.05,10.91,6.93,14.24,3.83,3.29,10.47,2.46,15.13,4.69,4.49,2.15,9.25,8.1,13.11,8.84l22.28-118.99c-3.86-.71-10.45,3.12-15.42,3.49Z"/>
        </g>
        <circle class="cls-52" cx="1864.62" cy="263.3" r="39.35"/>
        <path class="cls-42" d="M1855.72,282.49c-1.45-.27-2.72-1.14-3.5-2.39l-9.3-14.94c-1.53-2.47-.78-5.71,1.68-7.24,2.47-1.53,5.71-.78,7.24,1.69l5.93,9.53,21.96-20.38c2.13-1.98,5.46-1.85,7.43.28,1.98,2.13,1.85,5.46-.28,7.43l-26.63,24.72c-1.15,1.07-2.72,1.57-4.28,1.36-.09-.01-.18-.03-.27-.04Z"/>
      </g>
      <g>
        <path class="cls-7" d="M1710.19,412.73c-.74-.19-1.88-.46-2.91-.65-19.11-3.4-38.46,8-44.37,26.48-5.31,16.62,1.89,34.28,13.84,43.4l-1.83,7.19c-.72,2.84,1.65,6.05,4.49,6.77l9.06,2.3,9.11,2.31c2.84.72,5.66-1.17,6.38-4.01l1.83-7.19c15.53-1.86,28.53-13.2,32.56-29.09,5.28-20.8-7.35-42.12-28.17-47.52Z"/>
        <path class="cls-40" d="M1707.28,412.08c-19.11-3.4-38.46,8-44.37,26.48-5.31,16.62,1.89,34.28,13.84,43.4l-1.83,7.19c-.72,2.84,1.65,6.05,4.49,6.77l9.06,2.3,21.71-85.5c-.74-.19-1.88-.46-2.91-.65Z"/>
        <line class="cls-73" x1="1689.4" y1="492.97" x2="1689.92" y2="445.66"/>
        <line class="cls-73" x1="1689.9" y1="493.1" x2="1712.01" y2="451.27"/>
        <g>
          <path class="cls-43" d="M1670.75,505.62l-3.06,12.04c-1.99,7.85,3.5,15.81,11.35,17.8h0c.07.02-.07.19-.07.19l6.67-26.25-14.89-3.78Z"/>
          <path class="cls-43" d="M1685.64,509.4l-6.67,26.25c8.22,1.97,15.78-2.84,17.76-10.62l3.06-12.04-14.15-3.59Z"/>
        </g>
        <rect class="cls-52" x="1668.67" y="492.22" width="39.96" height="7.34" rx="3.67" ry="3.67" transform="translate(173.96 -400.3) rotate(14.25)"/>
        <rect class="cls-43" x="1666.86" y="499.34" width="39.96" height="7.34" rx="3.67" ry="3.67" transform="translate(175.65 -399.64) rotate(14.25)"/>
        <rect class="cls-52" x="1665.06" y="506.45" width="39.96" height="7.34" rx="3.67" ry="3.67" transform="translate(177.35 -398.97) rotate(14.25)"/>
        <rect class="cls-43" x="1663.25" y="513.56" width="39.96" height="7.34" rx="3.67" ry="3.67" transform="translate(179.04 -398.31) rotate(14.25)"/>
        <rect class="cls-52" x="1661.44" y="520.68" width="39.96" height="7.34" rx="3.67" ry="3.67" transform="translate(180.74 -397.65) rotate(14.25)"/>
        <g>
          <line class="cls-69" x1="1739.5" y1="409.95" x2="1748.65" y2="400.81"/>
          <line class="cls-69" x1="1754.51" y1="434.49" x2="1766.87" y2="430.69"/>
          <line class="cls-69" x1="1756.32" y1="463.21" x2="1769.02" y2="465.61"/>
          <line class="cls-69" x1="1685.23" y1="396.17" x2="1681.55" y2="383.77"/>
          <line class="cls-69" x1="1660.33" y1="410.58" x2="1651.29" y2="401.34"/>
          <line class="cls-69" x1="1645.04" y1="434.96" x2="1632.73" y2="431.01"/>
          <line class="cls-69" x1="1718" y1="382.42" x2="1714.71" y2="395.37"/>
        </g>
      </g>
      <g>
        <path class="cls-7" d="M209.7,74.12c-4.65-18.65-23.54-30-42.19-25.36-14.1,3.51-24.01,15.16-26.01,28.69-.03-.04-.21-.04-.24-.08-.03-.04-.23-.03-.24-.08-8.63-10.73-22.1-16.42-36.09-12.93-18.65,4.65-29.93,23.52-25.28,42.17,1.66,6.65,5.19,12.34,9.82,16.74l-.28.11s20.96,21.2,72.75,37.83c0,.01.2-.02.22-.02.02,0,.12,0,.14,0,39.2-39.33,46.77-67.69,46.77-67.69h-.15c2.02-6.07,2.45-12.74.79-19.39Z"/>
        <path class="cls-40" d="M104.92,64.36c-18.65,4.65-29.93,23.52-25.28,42.17,1.66,6.65,5.19,12.34,9.82,16.74l-.28.11s20.96,21.2,72.75,37.83l-20.92-83.92c-8.63-10.73-22.1-16.42-36.09-12.93Z"/>
        <path class="cls-52" d="M77.97,148.68l-36.26-25.22c-1.92-1.33-2.39-3.97-1.06-5.89,1.33-1.91,3.97-2.39,5.89-1.06l28.32,19.7,17.97-34.99,32.29,22.46,17.98-34.99,32.29,22.46,17.98-34.99,32.3,22.46,15.77-30.69c1.07-2.08,3.62-2.9,5.69-1.83,2.08,1.07,2.9,3.62,1.83,5.69l-20.19,39.29-32.3-22.46-17.98,34.99-32.29-22.46-17.98,34.99-32.29-22.46-17.97,34.99Z"/>
      </g>
      <g>
        <g>
          <path class="cls-51" d="M1802.03,69.06c120.77,4.78,123.9-73.92,124.03-77.69l.23-.19,17.72-11.45-1.28-1.98-140.86,91.07.16.25Z"/>
          <path class="cls-3" d="M1942.72-22.26l-1.28-1.98-17.83,11.53-.07.1c-2.25-.94-76.24-31.78-121.77,81.28l.09.15,140.86-91.07Z"/>
        </g>
        <g class="cls-79">
          <g>
            <path class="cls-71" d="M1899.24,28.8c3.3-8.13,3.98-17.2,2.29-25.8"/>
            <path class="cls-71" d="M1878.31,40.68c3.3-8.13,3.98-17.2,2.29-25.8"/>
            <path class="cls-71" d="M1855.2,52.08c3.3-8.13,3.98-17.2,2.29-25.8"/>
            <path class="cls-71" d="M1833.15,59.31c3.3-8.13,3.98-17.2,2.29-25.8"/>
          </g>
        </g>
        <g class="cls-84">
          <g>
            <path class="cls-68" d="M1878.51-3.27c8.77.32,17.31,3.43,24.46,8.5"/>
            <path class="cls-68" d="M1859.09,10.95c8.77.32,17.31,3.43,24.46,8.5"/>
            <path class="cls-68" d="M1839.2,27.34c8.77.32,17.31,3.43,24.46,8.5"/>
            <path class="cls-68" d="M1823.56,44.48c8.77.32,17.31,3.43,24.46,8.5"/>
          </g>
        </g>
      </g>
      <g>
        <g>
          <path class="cls-51" d="M1876.13,142.44c103.6-62.26,63.05-129.77,61.08-132.99l.09-.29,8.53-19.3-2.16-.96-67.82,153.41.28.12Z"/>
          <path class="cls-3" d="M1943.68-11.09l-2.16-.96-8.59,19.42v.12c-2.4.45-81.18,15.25-57.23,134.75l.16.07,67.82-153.41Z"/>
        </g>
        <g class="cls-76">
          <g>
            <path class="cls-71" d="M1924.34,76.86c-1.7-8.61-6.1-16.56-12.24-22.82"/>
            <path class="cls-71" d="M1911.28,99.07c-1.7-8.61-6.1-16.56-12.24-22.82"/>
            <path class="cls-71" d="M1896.8,117.21c-1.7-8.61-6.1-16.56-12.24-22.82"/>
          </g>
        </g>
        <g class="cls-77">
          <g>
            <path class="cls-68" d="M1900.4,40.01c7.51-4.54,16.36-6.63,25.12-6.31"/>
            <path class="cls-68" d="M1891.96,62.55c7.51-4.54,16.36-6.63,25.12-6.31"/>
            <path class="cls-68" d="M1884.33,87.16c7.51-4.54,16.36-6.63,25.12-6.31"/>
            <path class="cls-68" d="M1880.66,110.08c7.51-4.54,16.36-6.63,25.12-6.31"/>
          </g>
        </g>
      </g>
      <g>
        <g>
          <path class="cls-13" d="M92.3,260.91s27.96-5.61,41.31,12.93c0,0-26.52,9.92-41.31-12.93Z"/>
          <polygon class="cls-13" points="139.19 286.63 137.29 287.46 123.47 259.01 131.59 256 139.19 286.63"/>
          <g>
            <polygon class="cls-52" points="116.06 315.34 135.07 331.71 133.14 361.36 148.33 367.43 193.29 345.81 193.53 336.48 172.44 317.84 177.24 292.62 136.5 295.71 116.06 315.34"/>
            <circle class="cls-18" cx="162.72" cy="324.03" r="2.8"/>
            <circle class="cls-18" cx="149.08" cy="329.1" r="2.8"/>
            <path class="cls-38" d="M98.73,321.77s.89-44.07,37.85-37.46c0,0,23.59-30.32,55.91,5.74,0,0-10.26,9.35-25.18,5.65,0,0-6.13,13.37-19.69,6.7,0,0-6.87,13.02-24.91,9.25,0,0-8.63,14.91-23.97,10.13Z"/>
            <path class="cls-38" d="M208.45,333.08s-.89,44.07-37.85,37.46c0,0-23.59,30.32-55.91-5.74,0,0,10.26-9.35,25.18-5.65,0,0,6.13-13.37,19.69-6.7,0,0,6.87-13.02,24.91-9.25,0,0,8.63-14.91,23.97-10.13Z"/>
          </g>
        </g>
        <g>
          <path class="cls-52" d="M145.47,415.97s-.48-.04-1.38-.1c-.45-.03-1-.07-1.66-.12-.33-.02-.68-.05-1.05-.08-.42-.05-.86-.09-1.32-.15-.93-.11-1.96-.22-3.08-.35-1.08-.17-2.24-.36-3.48-.56-.31-.05-.63-.09-.94-.16-.32-.07-.64-.13-.97-.2-.65-.13-1.33-.27-2.02-.42-.34-.07-.69-.14-1.05-.22-.35-.09-.7-.18-1.06-.27-.72-.18-1.45-.37-2.2-.56-.75-.18-1.5-.42-2.27-.65-.77-.23-1.55-.47-2.34-.7-.79-.26-1.58-.55-2.39-.83-.81-.29-1.63-.55-2.44-.89-.82-.33-1.64-.66-2.48-.99-.42-.16-.83-.35-1.25-.54-.42-.19-.83-.37-1.25-.56-1.69-.73-3.36-1.6-5.06-2.46-.21-.1-.42-.22-.63-.34-.21-.12-.42-.23-.63-.35-.42-.23-.84-.47-1.26-.7-.42-.24-.84-.47-1.27-.71-.41-.25-.83-.51-1.25-.77-.42-.26-.83-.51-1.25-.77-.42-.26-.84-.5-1.25-.79-.82-.55-1.64-1.11-2.46-1.67-.2-.14-.41-.27-.62-.42l-.6-.44c-.4-.3-.8-.59-1.21-.89-.4-.3-.8-.6-1.21-.89-.4-.31-.78-.63-1.17-.94-.39-.32-.78-.63-1.17-.95-.39-.32-.79-.62-1.16-.96-.75-.66-1.51-1.33-2.26-1.99-.38-.32-.74-.68-1.1-1.03l-1.09-1.04-1.08-1.04-1.04-1.08c-.35-.36-.69-.72-1.03-1.08l-.52-.54c-.17-.18-.33-.37-.5-.55-.65-.74-1.31-1.48-1.96-2.22-.16-.18-.32-.37-.47-.56l-.46-.57c-.31-.38-.61-.76-.92-1.14-.3-.38-.61-.75-.91-1.13-.29-.39-.58-.78-.86-1.16-.29-.39-.57-.77-.85-1.15-.28-.38-.57-.76-.83-1.16-.53-.78-1.06-1.56-1.58-2.33-.13-.19-.26-.38-.39-.58-.12-.2-.24-.39-.37-.59-.24-.39-.48-.78-.72-1.17-.24-.39-.48-.77-.72-1.16l-.18-.29-.17-.29c-.11-.2-.22-.39-.33-.59-.44-.78-.87-1.55-1.29-2.31-.41-.77-.79-1.54-1.18-2.3-.19-.38-.38-.75-.57-1.13l-.14-.28-.13-.28c-.09-.19-.17-.38-.26-.56-.34-.75-.67-1.49-1-2.21-.08-.18-.16-.36-.24-.54-.07-.18-.15-.37-.22-.55-.15-.36-.29-.72-.43-1.08-.28-.71-.57-1.41-.84-2.09-.25-.69-.49-1.37-.72-2.04-.12-.33-.23-.66-.35-.98-.06-.16-.11-.32-.17-.48-.05-.16-.1-.32-.15-.48-.2-.64-.39-1.26-.57-1.87-.09-.3-.18-.6-.27-.89-.09-.29-.18-.58-.25-.87-.3-1.15-.58-2.23-.83-3.23-.24-1-.42-1.93-.6-2.76-.09-.42-.17-.81-.25-1.18-.08-.37-.13-.72-.18-1.05-.11-.65-.2-1.21-.28-1.66-.15-.9-.23-1.38-.23-1.38l1.75-.34s.13.46.36,1.32c.12.43.26.96.43,1.58.09.31.17.65.28,1,.11.35.23.73.36,1.12.26.79.52,1.67.85,2.61.35.94.72,1.95,1.12,3.03.09.27.21.54.33.81.12.27.23.55.35.83.24.56.48,1.14.73,1.74.06.15.12.3.19.45.07.15.14.3.21.45.14.3.28.6.43.91.29.61.58,1.24.89,1.87.32.63.66,1.26,1,1.91.17.32.34.65.52.98.09.16.17.33.26.5.09.16.19.33.28.49.38.66.77,1.32,1.17,2,.1.17.2.34.3.51l.15.26.16.25c.21.33.43.67.65,1.01.44.67.87,1.37,1.33,2.05.47.67.96,1.36,1.44,2.04.12.17.24.34.36.52l.18.26.19.25c.26.34.52.68.78,1.02.26.34.52.68.79,1.02.13.17.26.34.4.52.13.17.28.33.42.5.56.67,1.13,1.34,1.7,2.02.28.34.58.67.88,1,.3.33.6.66.9.99.3.33.6.66.91.99.31.33.63.64.95.96.32.32.64.64.96.96l.48.48c.16.16.32.32.49.47.67.62,1.34,1.24,2.01,1.86.17.15.33.31.51.46l.52.44c.35.3.7.59,1.05.89l1.05.89,1.09.85,1.09.85c.36.28.72.57,1.1.83.75.53,1.49,1.07,2.24,1.6.37.27.76.51,1.14.76.38.25.77.5,1.15.75.38.25.76.5,1.15.74.39.23.78.46,1.17.69.39.23.78.46,1.17.69l.58.34c.19.11.4.21.59.32.79.42,1.58.85,2.36,1.27.39.22.79.39,1.19.59.4.19.79.38,1.19.57.39.19.79.38,1.18.57.4.17.8.34,1.2.51.4.17.79.34,1.18.51.2.08.39.17.59.25.19.09.39.17.59.24,1.59.6,3.13,1.23,4.69,1.71.39.13.77.26,1.15.38.38.13.76.26,1.14.36.76.22,1.52.43,2.26.64.74.23,1.49.38,2.21.56.73.17,1.45.34,2.15.51.71.14,1.41.27,2.1.4.69.13,1.35.28,2.02.36.66.1,1.31.19,1.95.28.32.05.63.09.94.14.31.04.62.06.92.1.61.06,1.2.12,1.77.18.29.03.57.06.85.09.28.03.56.04.83.05,1.08.06,2.1.12,3.03.17.9,0,1.72.02,2.47.02.37,0,.72,0,1.05.01.37-.01.72-.02,1.05-.03.65-.02,1.21-.03,1.66-.05.9-.03,1.38-.04,1.38-.04l-.32,14.36Z"/>
          <path class="cls-52" d="M56.34,319.49c3.87,7.79,10.08,17.31,16.18,22.98l-14.11-3.47-13.06,6.36c4.78-6.82,8.84-17.43,10.99-25.86Z"/>
        </g>
        <g>
          <path class="cls-52" d="M61.13,273.1s.26-.4.75-1.16c.24-.38.54-.85.9-1.4.18-.28.37-.57.57-.89.24-.34.49-.71.76-1.09.54-.77,1.13-1.62,1.78-2.54.67-.86,1.39-1.8,2.15-2.79.2-.25.38-.51.59-.75.21-.25.42-.5.64-.76.43-.51.87-1.03,1.33-1.57.23-.27.45-.54.69-.81.24-.27.49-.53.74-.81.5-.54,1.01-1.1,1.54-1.66.51-.58,1.09-1.12,1.65-1.68.57-.56,1.15-1.14,1.74-1.72.61-.56,1.24-1.13,1.87-1.7.64-.57,1.27-1.17,1.95-1.72.68-.56,1.36-1.13,2.06-1.71.34-.29.7-.57,1.07-.84.36-.28.73-.55,1.09-.83,1.45-1.14,3.01-2.18,4.58-3.27.19-.14.4-.27.6-.39.2-.13.41-.26.61-.38.41-.26.81-.51,1.22-.77.41-.26.82-.52,1.23-.78.42-.24.85-.49,1.27-.73.42-.24.85-.49,1.28-.73.43-.24.85-.5,1.29-.72.88-.45,1.76-.91,2.64-1.37.22-.11.44-.23.67-.34l.68-.32c.45-.21.91-.42,1.36-.63.45-.21.91-.42,1.36-.63.46-.2.93-.39,1.39-.58.46-.19.93-.38,1.39-.58.47-.19.92-.39,1.4-.56.94-.34,1.89-.69,2.83-1.04.47-.18.95-.32,1.43-.48l1.43-.46,1.43-.45c.48-.13.96-.26,1.45-.4.48-.13.96-.26,1.44-.39l.72-.2c.24-.06.48-.11.72-.17.97-.22,1.93-.44,2.89-.66.24-.06.48-.11.72-.15l.72-.13c.48-.09.96-.18,1.44-.26.48-.09.95-.18,1.43-.26.48-.07.96-.14,1.43-.2.48-.07.95-.13,1.42-.2.47-.07.94-.14,1.41-.18.94-.09,1.88-.18,2.8-.27.23-.02.46-.05.69-.06.23-.01.46-.03.69-.04.46-.03.92-.05,1.37-.08.46-.03.91-.05,1.36-.07l.34-.02h.34c.22,0,.45-.01.67-.01.89-.01,1.77-.02,2.65-.03.87,0,1.73.04,2.58.06.42.01.84.03,1.26.04h.31s.31.03.31.03c.21.01.41.03.62.04.82.06,1.63.12,2.42.18.2.02.4.03.59.05.2.02.39.05.59.07.39.04.77.09,1.15.13.76.09,1.51.17,2.24.27.73.12,1.44.23,2.13.34.35.06.69.11,1.03.16.17.03.34.05.5.08.17.03.33.07.5.1.66.13,1.29.26,1.92.39.31.06.62.13.92.19.3.06.6.12.89.2,1.15.29,2.23.56,3.23.81.99.27,1.89.56,2.71.79.41.12.79.24,1.16.35.36.11.7.24,1.01.34.62.22,1.16.4,1.59.55.86.3,1.32.46,1.32.46l-.53,1.7s-.46-.11-1.33-.31c-.43-.1-.97-.23-1.6-.38-.31-.07-.65-.16-1.01-.23-.36-.07-.75-.14-1.16-.22-.82-.15-1.72-.34-2.7-.5-.99-.14-2.06-.3-3.2-.46-.28-.05-.58-.07-.87-.1-.3-.03-.6-.06-.9-.09-.61-.06-1.23-.12-1.88-.19-.16-.01-.32-.03-.48-.05-.16,0-.33-.02-.49-.03-.33-.02-.66-.04-1-.06-.67-.04-1.36-.08-2.07-.12-.71-.02-1.43-.02-2.16-.03-.37,0-.74,0-1.11-.01-.19,0-.37,0-.56,0-.19,0-.38.01-.57.02-.76.02-1.53.05-2.31.07-.2,0-.39.01-.59.02h-.3s-.3.03-.3.03c-.4.03-.79.06-1.2.09-.8.06-1.62.11-2.44.19-.82.09-1.65.19-2.48.29-.21.02-.42.05-.63.07l-.32.04-.31.05c-.42.07-.84.13-1.27.2-.42.07-.85.14-1.28.2-.21.03-.43.07-.64.1-.21.03-.43.08-.64.13-.85.17-1.72.35-2.58.52-.43.08-.86.19-1.3.3-.43.11-.87.21-1.3.32-.43.11-.87.21-1.31.32-.43.12-.87.25-1.3.38-.43.13-.87.25-1.3.38l-.65.19c-.22.06-.44.13-.65.2-.86.29-1.73.58-2.59.88-.22.08-.43.14-.65.22l-.64.25c-.43.17-.86.33-1.28.5-.43.17-.86.33-1.28.5l-1.27.55-1.26.55c-.42.19-.85.36-1.26.57-.82.4-1.65.8-2.47,1.2-.42.19-.81.42-1.22.64-.4.22-.8.43-1.2.65-.4.22-.8.43-1.2.65-.39.23-.78.47-1.17.7-.39.23-.78.46-1.16.69l-.58.35c-.19.12-.38.24-.57.37-.75.49-1.5.98-2.24,1.47-.38.23-.73.51-1.09.76-.36.26-.72.51-1.07.77-.36.26-.71.51-1.06.76-.34.27-.68.54-1.02.8-.34.27-.68.53-1.01.8-.17.13-.34.26-.5.4-.17.13-.34.26-.49.4-1.28,1.11-2.57,2.17-3.74,3.31-.3.28-.59.55-.89.83-.29.27-.59.54-.86.83-.56.57-1.1,1.13-1.65,1.68-.55.54-1.05,1.12-1.55,1.68-.5.56-.99,1.11-1.48,1.65-.46.56-.91,1.11-1.36,1.65-.44.54-.89,1.06-1.28,1.61-.4.54-.8,1.06-1.18,1.58-.19.26-.38.51-.57.76-.18.25-.35.51-.53.76-.34.5-.68.99-1,1.47-.16.24-.32.47-.48.7-.16.23-.3.47-.44.7-.57.92-1.11,1.78-1.6,2.58-.44.79-.84,1.51-1.2,2.16-.18.32-.35.63-.52.92-.17.33-.33.64-.48.93-.3.58-.55,1.08-.75,1.48-.41.8-.63,1.23-.63,1.23l-12.46-7.15Z"/>
          <path class="cls-52" d="M188.47,240.93c-8.7-.32-20.03.58-27.92,3.23l9.79-10.73.66-14.51c3.71,7.46,11.08,16.1,17.47,22.02Z"/>
        </g>
        <g>
          <path class="cls-52" d="M226.7,266.96s.23.42.67,1.21c.22.39.49.88.8,1.45.16.29.33.6.51.93.19.37.39.77.6,1.19.42.84.89,1.76,1.39,2.77.44,1,.92,2.07,1.44,3.22.12.29.27.58.38.88.12.3.24.61.36.92.24.62.5,1.26.75,1.92.13.33.26.66.39,1,.12.34.24.69.36,1.04.24.7.48,1.41.74,2.14.26.72.47,1.49.7,2.25.23.77.46,1.55.69,2.35.21.8.41,1.62.61,2.45.2.83.43,1.67.59,2.54.17.86.35,1.73.53,2.62.1.44.16.89.23,1.34.07.45.14.9.21,1.36.32,1.81.49,3.69.71,5.58.03.24.05.47.06.71.02.24.03.48.05.72.03.48.07.96.1,1.44.03.48.07.97.1,1.45.01.49.03.97.04,1.46.01.49.03.98.04,1.47,0,.49.04.98.02,1.48-.02.99-.03,1.98-.05,2.98,0,.25,0,.5-.02.75l-.04.75c-.03.5-.06,1-.09,1.5-.03.5-.06,1-.09,1.5-.04.5-.1,1-.15,1.5-.05.5-.1,1-.15,1.5-.06.5-.09,1-.17,1.5-.14.99-.29,1.99-.43,2.98-.06.5-.17.99-.26,1.48l-.28,1.48-.28,1.47c-.11.49-.23.97-.34,1.46-.11.49-.23.97-.34,1.46l-.17.73c-.06.24-.13.48-.19.72-.26.95-.53,1.91-.79,2.85-.06.24-.13.47-.21.7l-.23.7c-.15.47-.3.93-.45,1.39-.15.46-.29.92-.45,1.38-.17.45-.33.91-.5,1.36-.17.45-.33.9-.5,1.35-.17.45-.32.89-.51,1.33-.37.87-.73,1.74-1.09,2.6-.09.21-.17.43-.27.64-.1.21-.2.42-.29.63-.2.42-.39.83-.58,1.25-.19.41-.39.82-.58,1.23l-.14.31-.16.3c-.1.2-.21.4-.31.6-.41.79-.82,1.57-1.22,2.35-.42.76-.86,1.5-1.28,2.24-.21.37-.42.73-.63,1.09l-.16.27-.17.26c-.11.18-.22.35-.33.52-.44.69-.88,1.38-1.3,2.05-.11.17-.21.33-.32.5-.11.16-.23.32-.34.48-.22.32-.45.64-.66.95-.44.63-.86,1.25-1.3,1.84-.45.58-.88,1.16-1.31,1.72-.21.28-.42.56-.63.83-.1.14-.21.27-.31.41-.1.13-.22.26-.32.39-.43.51-.85,1.01-1.25,1.5-.2.24-.4.48-.6.72-.2.24-.39.47-.59.69-.8.88-1.55,1.7-2.25,2.46-.71.75-1.39,1.4-1.99,2.01-.3.3-.58.59-.85.86-.27.27-.54.5-.78.73-.49.45-.9.83-1.24,1.14-.67.62-1.03.94-1.03.94l-1.24-1.27s.32-.36.91-1.02c.3-.33.66-.74,1.09-1.23.21-.24.45-.5.68-.78.23-.29.48-.59.74-.92.52-.65,1.11-1.35,1.72-2.14.59-.8,1.24-1.67,1.92-2.6.18-.23.34-.47.5-.72.17-.25.33-.5.51-.75.34-.51.69-1.03,1.05-1.56.09-.13.18-.27.27-.4.09-.14.17-.28.26-.42.17-.28.35-.57.52-.86.35-.58.72-1.17,1.08-1.77.35-.61.7-1.25,1.05-1.89.18-.32.36-.64.54-.97.09-.16.18-.33.27-.49.08-.17.17-.34.26-.51.34-.68.68-1.37,1.04-2.07.09-.17.18-.35.26-.53l.13-.26.12-.27c.16-.36.33-.73.49-1.09.32-.74.67-1.47.99-2.23.3-.77.61-1.54.92-2.32.08-.2.16-.39.23-.59l.12-.3.11-.3c.14-.4.28-.81.42-1.21.14-.4.28-.81.43-1.22.07-.2.14-.41.21-.61.07-.2.13-.42.19-.62.25-.83.51-1.68.76-2.52.14-.42.24-.85.35-1.28.11-.43.22-.86.33-1.3.11-.43.22-.87.34-1.3.1-.44.19-.88.29-1.32.09-.44.19-.88.28-1.33l.14-.67c.05-.22.09-.44.13-.67.15-.9.3-1.8.46-2.7.04-.23.08-.45.11-.68l.09-.68c.06-.45.11-.91.17-1.37.06-.45.12-.91.17-1.37l.12-1.37.11-1.37c.04-.46.09-.91.1-1.37.04-.92.08-1.83.11-2.75.03-.46.01-.92.02-1.37,0-.46,0-.91,0-1.37,0-.46,0-.91,0-1.36-.02-.45-.04-.91-.06-1.36-.02-.45-.04-.9-.06-1.35l-.03-.67c0-.22-.04-.45-.05-.67-.08-.89-.15-1.78-.23-2.67-.03-.44-.1-.88-.16-1.32-.06-.44-.11-.87-.17-1.31-.06-.43-.11-.87-.17-1.3-.07-.43-.15-.86-.22-1.28-.07-.43-.15-.85-.22-1.27-.04-.21-.07-.42-.11-.63-.03-.21-.07-.42-.12-.63-.37-1.66-.69-3.29-1.14-4.86-.1-.39-.21-.78-.31-1.17-.1-.39-.2-.78-.33-1.15-.24-.76-.47-1.51-.7-2.25-.21-.74-.49-1.45-.74-2.16-.25-.7-.5-1.4-.75-2.08-.28-.67-.55-1.33-.81-1.98-.27-.64-.51-1.29-.81-1.89-.28-.61-.56-1.2-.83-1.79-.13-.29-.27-.58-.4-.86-.14-.28-.29-.55-.42-.83-.28-.54-.55-1.07-.82-1.58-.13-.26-.26-.51-.39-.76-.12-.25-.27-.48-.41-.72-.54-.94-1.05-1.82-1.51-2.63-.48-.76-.93-1.45-1.33-2.08-.2-.31-.39-.61-.56-.89-.21-.31-.41-.59-.6-.86-.37-.54-.69-.99-.95-1.36-.51-.74-.79-1.14-.79-1.14l12.2-7.58Z"/>
          <path class="cls-52" d="M194.63,394.33c4.41-7.5,8.99-17.9,10.39-26.11l4.81,13.71,12.46,7.46c-8.32-.27-19.43,2.12-27.67,4.93Z"/>
        </g>
      </g>
      <g>
        <g>
          <g>
            <g>
              <path class="cls-19" d="M351.31,584.17l7.85-3.44,10.4-7.02c3.53-2.1,5.06-6.58,3.4-10.51l-27.66-62.93-50.53,46.62,56.54,37.28Z"/>
              <path class="cls-19" d="M357.13,454.36h0c-8.8-20.77-38.41-31.13-59.46-23.91h0s0,0,0,0c-.95.33-1.9.69-2.85,1.09l-59.14,25.3c-1.59.67-3.12,1.44-4.58,2.27l-.78.33-25.31,23.34,14.96-3.91,77.59,68.99,45.1-37.7,7.3-7.16c11.8-11.92,14.11-32.3,7.18-48.64Z"/>
            </g>
            <path class="cls-30" d="M288.75,441.7l-67.82,28.74c-21.75,9.22-31.91,34.33-22.69,56.08h0c6.99,16.5,23.12,26.32,40,26.09l25.32,59.75c1.82,4.29,6.76,6.29,11.05,4.47l82-34.75c4.29-1.82,6.29-6.76,4.47-11.05l-25.32-59.75c11.91-11.96,16.06-30.39,9.07-46.89h0c-9.22-21.75-34.33-31.91-56.08-22.69Z"/>
          </g>
          <circle class="cls-46" cx="220.15" cy="499.4" r="5.05"/>
          <circle class="cls-46" cx="325.15" cy="499.83" r="5.05"/>
          <circle class="cls-46" cx="329.68" cy="576.72" r="3.36"/>
          <circle class="cls-46" cx="270.57" cy="583.19" r="3.36"/>
          <circle class="cls-46" cx="320.1" cy="576.24" r="2.52"/>
          <circle class="cls-46" cx="297.73" cy="463.59" r="5.05"/>
          <circle class="cls-46" cx="219.59" cy="516.21" r="3.36"/>
          <circle class="cls-46" cx="309.72" cy="457.25" r="3.36"/>
        </g>
        <path class="cls-58" d="M298.54,600.25c-4.08-.91-.21-8.93,8.14-21.38,8.35-12.45-15.5-23.4-30.78-30.21-15.28-6.81-3.49-36.86-25.96-32.62-18.63,3.51-20.15,27.75-20.72,35.74,2.95.59,5.97.88,9.01.84l25.32,59.75c1.82,4.29,6.76,6.29,11.05,4.47l38-16.11c-5.08-4.43-10.26.37-14.08-.48Z"/>
        <path class="cls-37" d="M282.49,606.72c-7.26.82-6.25-6.94,1.44-16.16,7.7-9.22-11.37-12.62-20.28-25.44-8.91-12.82.06-24.92-9.92-28.22-9.98-3.3-15.33,15.81-15.5,15.71l25.32,59.75c1.82,4.29,6.76,6.29,11.05,4.47l16.11-6.83c-.97-1.53-3.28-3.85-8.23-3.28Z"/>
      </g>
      <g>
        <rect class="cls-4" x="93" y="655.35" width="26.09" height="22.91" transform="translate(-90.3 20.8) rotate(-7.87)"/>
        <path class="cls-24" d="M137.65,684.35l-.91-6.65c-.53-3.85-4.09-6.54-7.92-6.01l-43.35,5.98c-3.83.53-6.52,4.09-5.99,7.93l.92,6.67,57.25-7.91Z"/>
        <path class="cls-4" d="M158.86,691.52l-.92-6.64c-.53-3.86-4.08-6.54-7.91-6.01l-83.02,11.48c-3.85.53-6.54,4.08-6.01,7.92l.92,6.66,96.94-13.4Z"/>
        <path class="cls-4" d="M87.53,533.27c29.41-4.07,56.64,16.56,60.71,45.97,4.07,29.41-16.55,56.64-45.96,60.71-29.41,4.07-47.01,12.51-47.01,12.51,0,0,32.06,12.81,50.16,10.31,42-5.81,71.45-44.69,65.65-86.69-4.65-33.67-30.58-59.27-62.31-65.12-7.85-1.45-21.24,22.31-21.24,22.31Z"/>
        <path class="cls-4" d="M102.28,639.95l.58,4.18c.53,3.85-2.15,7.4-5.99,7.93l-46.32,6.4c-3.84.53-7.39-2.15-7.92-5.99l-.58-4.17,60.23-8.35Z"/>
        <g>
          <path class="cls-4" d="M85.27,606.76l-7.72-2.16c-3.13-.88-4.96-4.13-4.08-7.26l1.6-5.69c.88-3.13,4.13-4.96,7.26-4.08l7.72,2.16c3.13.88,4.96,4.12,4.08,7.26l-1.6,5.69c-.88,3.13-4.13,4.96-7.26,4.08Z"/>
          <path class="cls-4" d="M119.35,485.36l-7.73-2.17c-3.13-.88-4.96-4.13-4.08-7.26l1.59-5.69c.88-3.13,4.13-4.96,7.26-4.08l7.72,2.16c3.14.88,4.96,4.13,4.09,7.26l-1.6,5.71c-.88,3.13-4.13,4.96-7.26,4.08Z"/>
          <g>
            <path class="cls-24" d="M84.07,596.22l10.07,2.83c3.13.88,6.38-.95,7.26-4.07l29.85-106.4c.88-3.13-.95-6.38-4.08-7.26l-10.08-2.83-33.03,117.73Z"/>
            <path class="cls-32" d="M99.77,479.73l-29.85,106.4c-.88,3.13.95,6.38,4.08,7.26l10.08,2.83,33.03-117.73-10.07-2.83c-3.13-.88-6.38.95-7.26,4.08Z"/>
          </g>
          <path class="cls-4" d="M103.83,590.12l-33.47-9.39c-3.13-.88-4.96-4.13-4.08-7.26l1.32-4.73c.88-3.13,4.13-4.96,7.26-4.08l33.47,9.38c3.13.88,4.96,4.13,4.08,7.26l-1.33,4.75c-.88,3.13-4.13,4.95-7.26,4.07Z"/>
        </g>
        <g>
          <path class="cls-4" d="M125.06,545.81c-10.09,1.39-19.43-5.67-20.82-15.78s5.68-19.42,15.77-20.81c10.1-1.4,19.43,5.67,20.83,15.76,1.4,10.1-5.67,19.44-15.77,20.83Z"/>
          <path class="cls-32" d="M133.45,526c.83,6.04-3.38,11.59-9.41,12.43-6.02.83-11.59-3.37-12.43-9.41-.83-6.02,3.38-11.6,9.41-12.43,6.03-.83,11.6,3.39,12.43,9.41Z"/>
        </g>
        <path class="cls-32" d="M80.29,572.81c.33,2.42-1.35,4.64-3.77,4.98-2.41.33-4.64-1.35-4.98-3.77s1.36-4.65,3.77-4.98c2.42-.33,4.65,1.35,4.98,3.77Z"/>
        <g>
          <path class="cls-11" d="M113.58,622.13l-65.45-17.6c-4.86,18.07,5.85,36.67,23.92,41.53,18.07,4.86,36.67-5.85,41.53-23.92Z"/>
          <path class="cls-38" d="M47.9,604.4l5.71,1.54c-4.02,14.95,4.87,30.39,19.83,34.41,14.95,4.02,30.39-4.87,34.41-19.83l5.71,1.54c-4.87,18.1-23.56,28.87-41.66,24-18.1-4.87-28.87-23.56-24-41.66Z"/>
          <path class="cls-38" d="M81.12,618.39s5.49,8.42,4.41,12.42c-1.07,3.99-5.18,6.36-9.17,5.29s-6.36-5.18-5.29-9.17c1.07-3.99,10.05-8.53,10.05-8.53Z"/>
          <path class="cls-38" d="M94.21,631.2c2.42.65,4.91-.78,5.56-3.2.65-2.42-.78-4.91-3.2-5.56l-10.57-2.84,5.43,9.43c.58,1.03,1.55,1.84,2.78,2.17Z"/>
          <path class="cls-38" d="M62.32,622.63c-2.42-.65-3.85-3.14-3.2-5.56.65-2.42,3.14-3.85,5.56-3.2l10.57,2.84-9.43,5.43c-1.02.6-2.26.82-3.49.48Z"/>
        </g>
      </g>
      <g id="canned_peas" data-name="canned peas">
        <g>
          <polygon class="cls-1" points="1843.61 486.26 1834.12 486.65 1790.5 626.22 1847.08 643.9 1891.65 501.28 1843.61 486.26"/>
          <polygon class="cls-37" points="1947.26 522.01 1939.41 516.2 1891.65 501.28 1847.08 643.9 1903.65 661.58 1947.26 522.01"/>
        </g>
        <polygon class="cls-39" points="1789.66 626.24 1799.73 641.55 1887.09 668.85 1904.1 662 1789.66 626.24"/>
        <g>
          <ellipse class="cls-52" cx="1891.48" cy="501.39" rx="40.85" ry="59.95" transform="translate(848.7 2157.2) rotate(-72.64)"/>
          <ellipse class="cls-23" cx="1891.48" cy="501.39" rx="33.22" ry="48.75" transform="translate(848.7 2157.2) rotate(-72.64)"/>
          <ellipse class="cls-52" cx="1891.48" cy="501.39" rx="27.92" ry="40.97" transform="translate(848.7 2157.2) rotate(-72.64)"/>
          <ellipse class="cls-23" cx="1891.48" cy="501.39" rx="21.75" ry="31.92" transform="translate(848.7 2157.2) rotate(-72.64)"/>
          <path class="cls-25" d="M1913.29,533.86l-15.41-23.27,17.92-7.16,15.41,23.27c1.08,1.63.48,3.55-1.33,4.27l-11.33,4.53c-1.82.73-4.17,0-5.25-1.64Z"/>
          <path class="cls-52" d="M1912.82,508.86l-7.92,3.16c-1.66.66-1.51,2.73.26,3.56l7.24,3.38c1.49.69,3.18.02,3.32-1.32l.67-6.54c.16-1.6-1.92-2.9-3.58-2.24Z"/>
        </g>
        <path class="cls-65" d="M1869.77,575.6s0,0,0,0c0,0,0,0,0,0Z"/>
        <g>
          <circle class="cls-42" cx="1863.87" cy="592.24" r="45.54"/>
          <circle class="cls-52" cx="1863.7" cy="592.19" r="38.76"/>
          <g>
            <path class="cls-25" d="M1871.17,595.49c3.29,19.07-2.99,30.46-2.99,30.46,0,0-9.8-8.62-13.08-27.69-3.29-19.07,2.36-34.33,2.36-34.33,0,0,10.43,12.49,13.71,31.56Z"/>
            <g>
              <circle class="cls-27" cx="1865.61" cy="612.82" r="4.12"/>
              <circle class="cls-27" cx="1863.78" cy="602.22" r="4.12"/>
              <circle class="cls-27" cx="1861.96" cy="591.62" r="4.12"/>
              <circle class="cls-27" cx="1860.13" cy="581.02" r="4.12"/>
            </g>
            <path class="cls-53" d="M1857.46,563.93s-3.15,4.98-4.63,11.04c0,0,2.14-.42,3.93-2.87,0,0,1.14,2.75,3.62,3.43,0,0-.26-2.48-.55-4.31,0,0,2.95,2.31,5.54,1.7,0,0-3.07-5.47-7.92-8.99Z"/>
            <polygon class="cls-53" points="1857.39 568.88 1856.15 560.9 1857.92 561.25 1859.62 568.48 1857.39 568.88"/>
          </g>
        </g>
      </g>
      <g>
        <rect class="cls-52" x="1414.47" y="557.57" width="202.39" height="20.81" rx="6.65" ry="6.65" transform="translate(-1.67 1131.47) rotate(-40.92)"/>
        <g>
          <g>
            <rect class="cls-7" x="1460.92" y="558.21" width="20.95" height="96.26" rx="4.81" ry="4.81" transform="translate(-37.61 1111.86) rotate(-40.92)"/>
            <rect class="cls-28" x="1445.09" y="584.62" width="20.95" height="70.89" rx="5.72" ry="5.72" transform="translate(-50.47 1104.84) rotate(-40.92)"/>
            <line class="cls-70" x1="1433.72" y1="601.83" x2="1469.85" y2="643.51"/>
            <line class="cls-74" x1="1442.17" y1="578.17" x2="1496.88" y2="641.3"/>
          </g>
          <g>
            <rect class="cls-7" x="1549.44" y="481.48" width="20.95" height="96.26" rx="4.81" ry="4.81" transform="translate(3085.57 -91.86) rotate(139.08)"/>
            <rect class="cls-28" x="1565.28" y="480.44" width="20.95" height="70.89" rx="5.72" ry="5.72" transform="translate(3104.38 -126.33) rotate(139.08)"/>
            <line class="cls-70" x1="1597.59" y1="534.12" x2="1561.47" y2="492.44"/>
            <line class="cls-74" x1="1589.15" y1="557.78" x2="1534.43" y2="494.65"/>
          </g>
        </g>
      </g>
      <path class="cls-50" d="M391.66,148.1c-.95-1.38-2.27-2.48-3.78-3.2-.64-.3-1.27-.51-1.91-.64-1.65-.45-6.15-1.67-8.16-3.19-2.48-1.88-4.44-4.83-4.44-4.83l-.05.02c-.21-.39-.23-.32-.34-.41-1.05-.93-2.58-1.31-3.89-.78-1.24.51-2.11,1.62-2.27,2.94-.07.57.02,1.1.17,1.64.14,1.2.31,3.36.03,5.44-.36,2.63-3.04,7.18-3.81,8.45-.06.1-.13.17-.18.27-.01.02-.03.02-.03.02h0c-1.67,3.38-1.76,6.57-.21,9.55.05.1.11.22.17.32,2.23,3.95,7.01,5.91,11.37,4.64,1.78-.52,3.27-1.47,4.43-2.7,1.21-1.28,2.95-1.92,4.72-1.9,1.3.02,2.63-.22,3.91-.75,5.72-2.37,8.01-9.47,4.28-14.88Z"/>
      <path class="cls-50" d="M350.82,101.42c.43-1.61.42-3.34,0-4.95-.18-.68-.44-1.29-.75-1.87-.73-1.55-2.72-5.76-2.87-8.28-.18-3.1.8-6.51.8-6.51l-.05-.02c.16-.41.09-.38.09-.53.03-1.4-.67-2.82-1.93-3.47-1.19-.61-2.6-.56-3.71.18-.48.32-.83.73-1.14,1.19-.82.88-2.36,2.41-4.12,3.54-2.24,1.43-7.44,2.34-8.9,2.58-.12.02-.21.01-.33.03-.02,0-.03-.01-.03-.01h0c-3.65.92-6.14,2.92-7.41,6.04-.04.11-.1.23-.14.34-1.56,4.26.05,9.17,3.84,11.66,1.55,1.02,3.24,1.54,4.93,1.62,1.76.09,3.38,1,4.5,2.36.83,1,1.87,1.86,3.11,2.49,5.52,2.81,12.4-.04,14.11-6.39Z"/>
      <path class="cls-50" d="M434.04,74.65c.25-2.38-.16-4.82-1.13-7-.41-.92-.91-1.73-1.48-2.47-1.38-2.02-5.15-7.54-5.92-11.06-.95-4.35-.34-9.39-.34-9.39l-.07-.02c.13-.62.04-.56.01-.77-.28-1.99-1.59-3.83-3.52-4.47-1.82-.6-3.8-.2-5.21,1.09-.61.56-1.01,1.22-1.34,1.94-.96,1.44-2.79,3.95-5.03,5.94-2.84,2.53-10,4.99-12.01,5.65-.16.05-.29.07-.45.12-.03.01-.05,0-.05,0h0c-4.96,2.12-8.03,5.51-9.12,10.21-.04.16-.09.34-.12.51-1.25,6.37,2.13,12.96,8.06,15.63,2.42,1.09,4.93,1.45,7.34,1.19,2.51-.27,5,.66,6.9,2.33,1.4,1.23,3.07,2.2,4.96,2.82,8.43,2.74,17.53-2.85,18.52-12.22Z"/>
      <path class="cls-50" d="M397.75,686.17c-4.39,5.45-9.56,7.94-15.98,7.52-13.26-.88-20.91-15.54-14.13-26.98,3.68-6.21,2.69-15.05-2.28-20.35-5.27-5.62-6.1-14.79-1.94-21.32,5.27-8.28,15.32-10.96,23.93-6.32,3.4,1.84,6.16,4.5,8.45,7.59,12.24,16.51,14.26,34.22,6.04,53.05-1.14,2.62-2.63,5.06-4.08,6.82ZM372.36,642.83c-.59-.53-1.2-.61-1.8-.15-.6.47-.66,1.09-.3,1.75.13.24.32.46.49.68,4.86,6.35,5.77,13.27,2.97,20.7-.5,1.33-1.23,2.56-1.84,3.85-.41.86-.19,1.6.58,1.97.72.35,1.4.09,1.85-.71.14-.24.27-.49.4-.74,3.17-6.03,4.28-12.32,2.28-18.97-.94-3.13-2.57-5.9-4.62-8.38Z"/>
      <path class="cls-50" d="M499.58,686c.86,5.65-.5,10.14-4.3,13.77-7.85,7.5-20.9,4-24.04-6.4-1.7-5.65-7.57-9.94-13.5-9.87-6.29.07-12.27-4.5-13.9-10.61-2.07-7.74,1.86-15.27,9.42-17.89,2.99-1.03,6.11-1.22,9.23-.89,16.69,1.75,28.46,10.32,35.26,25.67.94,2.13,1.59,4.38,1.84,6.22ZM459.47,677.33c-.64.06-1.03.38-1.08,1-.05.62.3,1,.88,1.15.22.05.45.06.68.08,6.51.58,11.17,3.86,14.09,9.65.52,1.03.86,2.16,1.3,3.23.29.72.86,1,1.51.74.61-.24.83-.79.59-1.51-.07-.22-.15-.43-.22-.65-1.88-5.24-5.05-9.38-10.15-11.85-2.4-1.16-4.97-1.71-7.6-1.85Z"/>
      <g>
        <path class="cls-61" d="M1636.95,694.2c-9.07,20.1-29.13,24.69-29.13,24.69h0c-19.19-13.74-34.68-32.01-45.08-53.2h0s29.13-24.69,29.13-24.69h0c10.4,21.18,25.89,39.46,45.08,53.2,0,0-.53.34,0,0Z"/>
        <path class="cls-12" d="M1636.95,694.2c-3.23,7.16-7.86,12.36-12.48,16.07-33.8-25.99-47.79-56.4-47.79-56.4l15.19-12.87h0c10.4,21.18,25.89,39.46,45.08,53.2h0Z"/>
        <g>
          <path class="cls-34" d="M1564.24,665.55c-.33,0-.77-.05-.98-.3-.44-.52-.15-2.24,2.09-5.38,2.13-2.98,5.42-6.42,9.27-9.68,6.28-5.32,12.75-9.03,15.74-9.03.33,0,.77.05.98.3.44.52.15,2.24-2.09,5.38-2.13,2.98-5.42,6.42-9.27,9.68-6.28,5.32-12.75,9.03-15.74,9.03Z"/>
          <path class="cls-31" d="M1590.36,641.84h0c.28,0,.41.05.44.05,0,0,0,0,0,0,.41.96-2.33,6.53-11.27,14.1-6.87,5.82-12.9,8.87-15.3,8.87-.28,0-.41-.05-.44-.05,0,0,0,0,0,0-.41-.96,2.33-6.53,11.27-14.1,6.87-5.82,12.9-8.87,15.3-8.87M1590.36,640.46c-3.09,0-9.59,3.61-16.19,9.2-8.04,6.82-13.16,13.99-11.44,16.03.31.37.82.54,1.5.54,3.09,0,9.59-3.61,16.19-9.2,8.04-6.82,13.16-13.99,11.44-16.03-.31-.37-.82-.54-1.5-.54h0Z"/>
        </g>
        <path class="cls-66" d="M1631.88,702.35c-33.8-25.99-44.79-52.85-44.79-52.85"/>
        <path class="cls-66" d="M1624.48,710.29c-33.8-25.99-44.79-52.85-44.79-52.85"/>
        <path class="cls-66" d="M1615.6,715.24c-33.8-25.99-44.79-52.85-44.79-52.85"/>
      </g>
      <g>
        <path class="cls-61" d="M1669.88,596.5c2.23,18.28-10.1,30.25-10.1,30.25h0c-19.65-1.49-38.63-7.83-55.24-18.45h0s10.1-30.25,10.1-30.25h0c16.61,10.62,35.59,16.95,55.24,18.45,0,0-.23.47,0,0Z"/>
        <path class="cls-12" d="M1669.88,596.5c.8,6.51-.26,12.23-1.95,16.88-35.39-3.91-58.56-19.55-58.56-19.55l5.27-15.77h0c16.61,10.62,35.59,16.95,55.24,18.45h0Z"/>
        <g>
          <path class="cls-34" d="M1604.88,607.78c-.06,0-.11,0-.16-.03-.54-.18-1.08-1.53-.84-4.75.23-3.05,1.09-6.93,2.42-10.93,2.7-8.08,6.31-13.51,7.99-13.51.06,0,.11,0,.16.03.54.18,1.08,1.53.84,4.75-.23,3.05-1.09,6.93-2.42,10.93-2.7,8.08-6.31,13.51-7.99,13.51Z"/>
          <path class="cls-31" d="M1614.27,579.15c.7.56,1.14,5.71-1.94,14.94-2.88,8.61-6.38,13.11-7.41,13.13-.71-.49-1.18-5.65,1.93-14.96,2.86-8.56,6.33-13.06,7.43-13.11M1614.29,578c-2.18,0-5.89,5.98-8.54,13.9-2.79,8.35-3.33,15.7-1.22,16.4.11.04.23.05.35.05,2.18,0,5.89-5.98,8.54-13.9,2.79-8.35,3.33-15.7,1.22-16.4-.11-.04-.23-.05-.35-.05h0Z"/>
        </g>
        <path class="cls-67" d="M1669.79,604.51c-35.39-3.91-54.89-18.33-54.89-18.33"/>
        <path class="cls-67" d="M1667.95,613.39c-35.39-3.91-54.89-18.33-54.89-18.33"/>
        <path class="cls-67" d="M1663.76,620.77c-35.39-3.91-54.89-18.33-54.89-18.33"/>
      </g>
      <g>
        <path class="cls-61" d="M1734.68,698.76c-15.63,9.74-31.68,3.62-31.68,3.62h0c-6.95-18.45-9.22-38.33-6.61-57.86h0s31.68-3.62,31.68-3.62h0c-2.61,19.54-.34,39.42,6.61,57.86,0,0-.52-.01,0,0Z"/>
        <path class="cls-12" d="M1734.68,698.76c-5.57,3.47-11.19,4.93-16.13,5.37-11.41-33.73-7.01-61.34-7.01-61.34l16.52-1.89h0c-2.61,19.54-.34,39.42,6.61,57.86h0Z"/>
        <g>
          <path class="cls-34" d="M1706.14,646.54c-5.81,0-9.07-1.07-9.18-2.08-.16-1.44,5.42-4.1,14.88-5.19,2.25-.26,4.43-.39,6.48-.39,5.81,0,9.07,1.07,9.18,2.08.16,1.44-5.42,4.11-14.88,5.19-2.25.26-4.43.39-6.48.39Z"/>
          <path class="cls-31" d="M1718.32,638.3v1.15c5.95,0,8.41,1.09,8.61,1.55-.14.85-4.62,3.46-14.37,4.57-2.22.25-4.38.38-6.42.38-5.95,0-8.41-1.09-8.61-1.55.14-.85,4.62-3.46,14.37-4.57,2.22-.25,4.38-.38,6.42-.38v-1.15M1718.31,638.3c-2.01,0-4.23.13-6.55.39-8.75,1-15.64,3.61-15.38,5.82.19,1.63,4.18,2.59,9.75,2.59,2.01,0,4.23-.13,6.55-.39,8.75-1,15.64-3.61,15.38-5.82-.19-1.63-4.18-2.59-9.75-2.59h0Z"/>
        </g>
        <path class="cls-67" d="M1727.38,702.06c-11.41-33.73-6.57-57.49-6.57-57.49"/>
        <path class="cls-67" d="M1718.55,704.14c-11.41-33.73-6.57-57.49-6.57-57.49"/>
        <path class="cls-67" d="M1710.09,703.46c-11.41-33.73-6.57-57.49-6.57-57.49"/>
      </g>
      <g>
        <circle class="cls-1" cx="1687.99" cy="185.65" r="34.57"/>
        <path class="cls-4" d="M1697.31,152.36c18.38,5.15,29.11,24.23,23.96,42.62-5.15,18.38-24.23,29.11-42.62,23.96"/>
        <g id="Fibre">
          <path class="cls-15" d="M1680.31,205.83c.07-.01.12-.02.12-.02,0,0,10.86-11.12-9.52-16.73-.03,0-.05-.01-.08-.02-5.78,18.93,8.08,17.01,9.48,16.77Z"/>
          <path class="cls-54" d="M1684.26,206.92c-.06-.05-.09-.08-.09-.08,0,0-3.65-15.11,16.74-9.5.03,0,.05.01.08.02-4.71,19.22-15.64,10.48-16.72,9.56Z"/>
          <path class="cls-54" d="M1684.6,190.23c.07-.01.12-.02.12-.02,0,0,10.86-11.12-9.52-16.73-.03,0-.05-.01-.08-.02-5.78,18.93,8.08,17.01,9.48,16.77Z"/>
          <path class="cls-15" d="M1688.55,191.31c-.06-.05-.09-.08-.09-.08,0,0-3.65-15.11,16.74-9.5.03,0,.05.01.08.02-4.71,19.22-15.64,10.48-16.72,9.56Z"/>
          <path class="cls-54" d="M1690.25,179.15c-.07,0-.12.01-.12.01,0,0-13.41-7.86,4.78-18.64.02-.01.04-.03.07-.04,10.57,16.74-3.31,18.54-4.73,18.67Z"/>
        </g>
      </g>
      <g>
        <g>
          <circle class="cls-32" cx="1766.65" cy="143.84" r="34.57"/>
          <path class="cls-21" d="M1758.05,110.36c18.49-4.75,37.33,6.39,42.08,24.88,4.75,18.49-6.39,37.33-24.88,42.08"/>
        </g>
        <g id="protein">
          <g>
            <path class="cls-54" d="M1783.27,156.16s-1.91-1.48-6.16-1.04c-4.23.43-18.45,2.12-19.19-.75l-1.74-6.76s2.77.6,4.11.69c1.54.11,18.96-1.81,21.03.28l1.95,7.58Z"/>
            <path class="cls-54" d="M1779.06,139.78s-1.91-1.48-6.16-1.04c-4.23.43-18.45,2.12-19.19-.75l-1.74-6.76s2.77.6,4.11.69c1.54.11,18.96-1.81,21.03.28l1.95,7.58Z"/>
            <path class="cls-63" d="M1761.97,170.15s.96-2.21,4.9-3.88,17.19-7.03,16.45-9.9l-1.74-6.76s-2.14,1.86-3.27,2.59c-1.29.83-17.49,7.55-18.29,10.37l1.95,7.58Z"/>
            <path class="cls-63" d="M1757.82,153.97s.96-2.21,4.9-3.88c3.91-1.66,17.19-7.03,16.45-9.9l-1.74-6.76s-2.14,1.86-3.27,2.59c-1.29.83-17.49,7.55-18.29,10.37l1.95,7.58Z"/>
            <path class="cls-63" d="M1753.61,137.58s.96-2.21,4.9-3.88c3.91-1.66,17.19-7.03,16.45-9.9l-1.74-6.76s-2.14,1.86-3.27,2.59c-1.29.83-17.49,7.55-18.29,10.37l1.95,7.58Z"/>
          </g>
        </g>
      </g>
      <g>
        <circle class="cls-7" cx="1696.68" cy="70.47" r="34.57"/>
        <path class="cls-40" d="M1696.68,35.9c19.09,0,34.57,15.48,34.57,34.57s-15.48,34.57-34.57,34.57"/>
        <g>
          <path class="cls-4" d="M1695.37,64.56c-1.21-3.18-3.4-5.46-7.74-5.46-4.83,0-8.9,3.4-8.9,10.65s4.07,10.65,8.9,10.65c4.34,0,6.53-2.28,7.74-5.46l5.23,1.34c-1.48,6-6.17,9.49-12.97,9.49-7.83,0-14.81-5.55-14.81-16.02s6.98-16.02,14.81-16.02c6.8,0,11.5,3.49,12.97,9.48l-5.23,1.34Z"/>
          <path class="cls-4" d="M1702.31,68.76c.72-3.71,3.98-6.26,8.59-6.26,5.37,0,9.49,2.24,9.49,9.44v13.47h-4.56l-.58-2.86c-1.57,1.92-3.71,3.22-6.93,3.22-3.85,0-6.84-2.37-6.84-6.85s3.94-7.38,9.62-7.38h3.76v-.98c0-2.5-1.88-3.31-3.94-3.31-1.57,0-3.18.49-3.89,2.59l-4.7-1.07ZM1709.6,81.02c2.55,0,5.23-1.74,5.23-4.65v-.45h-3.71c-2.37,0-3.85.89-3.85,2.91,0,1.07.76,2.19,2.33,2.19Z"/>
        </g>
      </g>
      <g>
        <circle class="cls-14" cx="475.57" cy="443.6" r="50.92"/>
        <path class="cls-14" d="M482.73,485.12c-2.89,24.61-20.15,46.99-43.22,56.05,10.81-7.45,17.8-19.5,21.49-32.1,3.69-12.6,4.4-25.86,4.85-38.99"/>
        <g>
          <circle class="cls-4" cx="494.53" cy="443.6" r="5.21"/>
          <circle class="cls-4" cx="475.57" cy="443.6" r="5.21"/>
          <circle class="cls-4" cx="456.6" cy="443.6" r="5.21"/>
        </g>
      </g>
      <g>
        <path class="cls-47" d="M424.64,284.92c-58.33-5.48-86.47-35.45-86.47-35.45h0c-9.16-7.97-17.69-18.66-27.66-34.23-.77-1.2-1.65-2.51-3.03-2.85-1.6-.4-3.16.65-4.47,1.64-4.96,3.76-10.52,9.36-8.38,15.2,1.42,3.88,5.93,6.17,6.85,10.2.69,2.99-.82,5.99-2,8.83-5.07,12.11-4.11,26.24,1.55,38.04.57,1.18,1.18,2.34,1.84,3.47.15.26.32.54.5.82.18.29.36.58.55.87.17.26.34.52.52.8,7.4,11.22,28.39,35.6,77.22,49.67,0,0,.54.16,1.56.44,1.93.53,3.89,1,5.86,1.43,6.03,1.35,21.4,4.35,32.73,5.39.49-20.38,3.92-43.88,2.84-64.26Z"/>
        <circle class="cls-5" cx="426.4" cy="317.34" r="32.18"/>
        <circle class="cls-10" cx="426.4" cy="317.34" r="24.99"/>
        <g>
          <path class="cls-17" d="M424.31,316.51s-3.35-4-5.5-4.08c-2.15-.07-3.94,1.61-4.02,3.75s1.61,3.94,3.75,4.02c2.15.07,5.76-3.69,5.76-3.69Z"/>
          <path class="cls-17" d="M419.93,308.06c.04-1.3,1.13-2.32,2.43-2.27,1.3.04,2.32,1.13,2.27,2.43l-.19,5.68-3.86-4.13c-.43-.44-.68-1.05-.66-1.71Z"/>
          <path class="cls-17" d="M419.35,325.2c-.04,1.3.97,2.39,2.27,2.43s2.39-.97,2.43-2.27l.19-5.68-4.13,3.86c-.45.41-.75,1-.77,1.66Z"/>
        </g>
        <g>
          <path class="cls-17" d="M428.51,317.13s3.35,4,5.5,4.08,3.94-1.61,4.02-3.75-1.61-3.94-3.75-4.02-5.76,3.69-5.76,3.69Z"/>
          <path class="cls-17" d="M432.89,325.58c-.04,1.3-1.13,2.32-2.43,2.27-1.3-.04-2.32-1.13-2.27-2.43l.19-5.68,3.86,4.13c.43.44.68,1.05.66,1.71Z"/>
          <path class="cls-17" d="M433.47,308.44c.04-1.3-.97-2.39-2.27-2.43s-2.39.97-2.43,2.27l-.19,5.68,4.13-3.86c.45-.41.75-1,.77-1.66Z"/>
        </g>
      </g>
      <g id="broccoli">
        <path class="cls-9" d="M481.77,207.65s34.77,7.4,54.37,63l26.96-14.44s-32.74-45.5-20.97-83.84l-9.76,5.23s-2.24,13.13,1.18,25.65l-6.52-22.79-7.67,4.11,5.98,20.09-11.33-21.15-6.74,3.61,12.32,23.01-16.35-19.36-8.37,4.48,16.21,18.54s-16.52-12.98-23.27-13.86l-6.04,7.72Z"/>
        <circle class="cls-55" cx="485.35" cy="147.8" r="27.06"/>
        <g>
          <circle class="cls-55" cx="449.02" cy="181.57" r="27.06"/>
          <circle class="cls-55" cx="539.8" cy="132.95" r="27.06"/>
        </g>
        <g>
          <circle class="cls-55" cx="515.01" cy="127.75" r="27.06"/>
          <circle class="cls-55" cx="458.43" cy="158.05" r="27.06"/>
        </g>
        <circle class="cls-55" cx="480.55" cy="131.38" r="27.06"/>
        <path class="cls-44" d="M549.62,127.69c-6.07,3.25-10.39,8.49-12.6,14.48-9.01-3.6-19.48-3.35-28.7,1.59-6.57,3.52-11.5,8.88-14.52,15.11-9.4-4.43-20.7-4.5-30.57.78-9,4.82-14.95,13.12-17.08,22.35-2.74.49-5.45,1.4-8.04,2.79-13.17,7.05-18.13,23.45-11.08,36.63,2.41,4.51,5.92,8.05,10.02,10.48l24.61-13.18,16.25-8.7,22.55-12.08,12.8-6.86,33.1-17.73,11.4-6.1,31.66-16.96c-.18-3.91-1.21-7.84-3.18-11.52-7.05-13.17-23.45-18.13-36.63-11.08Z"/>
        <path class="cls-9" d="M539.23,214.56s16.32-5.98,16.12-29.81l7.16-1.75s6.28,23.79-19.36,38.87l-3.92-7.32Z"/>
        <circle class="cls-62" cx="558.89" cy="183.69" r="3.69"/>
        <path class="cls-9" d="M540.4,239.28s-14.03,10.27-33.74-3.1l-5.42,4.99s16.32,18.41,43.09,5.43l-3.92-7.32Z"/>
        <circle class="cls-62" cx="503.82" cy="238.54" r="3.69"/>
      </g>
      <g id="olive_oil" data-name="olive oil">
        <g>
          <path class="cls-15" d="M606.7,604.65l-.29.07c.1-.02.36.59.45.57l-30.26,7.54,49.96,200.47,25.87-6.45c5.66-1.41,8.27-7.17,6.86-12.83l-42.63-171.08c-1.81-7.28-4.79-13.45-9.95-18.3Z"/>
          <path class="cls-54" d="M546.08,620.44c.1-.02.04-.69.13-.72l-.29.07c-2.28,6.71-2.4,13.65-.59,20.93l42.63,171.08c1.41,5.66,6.8,9.42,12.46,8.01l26.13-6.51-49.96-200.47-30.52,7.61Z"/>
          <path class="cls-45" d="M576.6,612.84l-.16-.64-30.23,7.53c-.1.02-.04.69-.13.72l30.52-7.61Z"/>
          <path class="cls-45" d="M576.6,612.84l30.26-7.54c-.1.02-.36-.59-.45-.57l-29.97,7.47.16.64Z"/>
          <path class="cls-16" d="M541.69,540.33c-3.07.77-4.75,4.01-3.98,7.08.61,2.44,2.51,4.35,5.27,4.46l13.15,52.78c-5.09,4.22-8.25,8.53-9.92,15.08l30.23-7.53-16.04-64.38-2.05-8.24-.8-3.2-15.85,3.95Z"/>
          <path class="cls-8" d="M590.82,596l-13.15-52.77c2.38-1.38,3.05-3.94,2.44-6.38-.77-3.07-3.91-5.12-6.98-4.35l-15.59,3.89.8,3.2,2.05,8.24,16.04,64.38,29.97-7.47c-4.55-5.01-9.1-7.39-15.58-8.73Z"/>
        </g>
        <g>
          <rect class="cls-8" x="555.93" y="642.75" width="74.71" height="75.21" transform="translate(-146.92 163.66) rotate(-13.99)"/>
          <circle class="cls-8" cx="586.97" cy="655.01" r="28.09"/>
          <path class="cls-45" d="M599.93,656.23c12.49,11.42,17.26,26.52,17.26,26.52,0,0-15.47-3.41-27.95-14.83-12.49-11.42-17.26-26.52-17.26-26.52,0,0,15.47,3.41,27.95,14.83Z"/>
          <path class="cls-59" d="M586.37,686.84c-16.63-3.12-28.65-13.44-28.65-13.44,0,0,14.94-5.26,31.57-2.14,16.63,3.12,28.65,13.44,28.65,13.44,0,0-14.94,5.26-31.57,2.14Z"/>
          <g>
            <ellipse class="cls-22" cx="584.69" cy="693.17" rx="9.68" ry="13.79" transform="translate(-321.56 660.64) rotate(-47.8)"/>
            <circle class="cls-52" cx="578.72" cy="687.75" r="1.86"/>
          </g>
          <g>
            <ellipse class="cls-22" cx="610.65" cy="677.94" rx="9.68" ry="13.79" transform="translate(-157.26 185.18) rotate(-15.3)"/>
            <circle class="cls-52" cx="608.53" cy="670.17" r="1.86"/>
          </g>
        </g>
        <rect class="cls-30" x="547.23" y="520.45" width="23.35" height="42.19" transform="translate(-114.37 151.23) rotate(-13.99)"/>
        <rect class="cls-19" x="544.07" y="520.84" width="23.35" height="16.07" transform="translate(-111.4 150.09) rotate(-13.99)"/>
      </g>
      <g>
        <path class="cls-51" d="M1379.12,34.12h11.04c12.93,0,23.43,10.5,23.43,23.43v11.31h-57.9v-11.31c0-12.93,10.5-23.43,23.43-23.43Z" transform="translate(25.89 -219.94) rotate(9.17)"/>
        <path class="cls-32" d="M1387.4,34.34l-5.45-.88c-12.77-2.06-24.8,6.62-26.86,19.4l-1.8,11.16,28.58,4.61"/>
        <path class="cls-57" d="M1353.29,64.03l57.16,9.22-1.66,116c-.03,1.93-1.76,3.38-3.66,3.07l-84.24-13.59c-1.9-.31-3.09-2.23-2.51-4.07l34.91-110.63Z"/>
        <circle class="cls-29" cx="1386.02" cy="42.92" r="3.82"/>
        <circle class="cls-29" cx="1373.2" cy="49.65" r="3.82"/>
        <circle class="cls-29" cx="1396.07" cy="53.34" r="3.82"/>
        <path class="cls-52" d="M1378.97,86.61h0c12.76,2.06,22.04,13.44,21.85,26.37l-.94,66.83c-.03,1.93-1.76,3.38-3.66,3.07l-63.9-10.31c-1.9-.31-3.09-2.23-2.51-4.07l20.13-63.73c3.89-12.33,16.27-20.22,29.03-18.16Z"/>
        <path class="cls-35" d="M1378.97,86.61c12.76,2.06,22.04,13.44,21.85,26.37l-.94,66.83c-.03,1.93-1.76,3.38-3.66,3.07l-31.95-5.16"/>
      </g>
      <g>
        <g>
          <path class="cls-6" d="M1353.8,631.13c.39-11.8-4.04-24.63-13.23-35.23-17.1-19.73-44.19-24.27-60.51-10.12-16.32,14.14-15.68,41.6,1.43,61.33,8.71,10.05,20.01,16.14,31.15,17.85l35.18,8.82,4.61-4,5.18-4.49-3.81-34.17Z"/>
          <path class="cls-50" d="M1280.06,585.78c-16.32,14.14-15.68,41.6,1.43,61.33,8.71,10.05,20.01,16.14,31.15,17.85l35.18,8.82,4.61-4"/>
          <path class="cls-52" d="M1381.15,690.03c-.48.41-1.04.99-.97,1.07l-22.47-25.92-9.84,8.53,22.47,25.92c-.07-.09-1.06.68-1.54,1.09-4.1,3.55-4.56,9.77-1,13.87,3.55,4.1,9.75,4.55,13.85,1,2.49-2.16,3.62-5.29,3.34-8.33,2.98.71,6.24.04,8.72-2.12,4.1-3.55,4.7-9.89,1.14-13.99-3.55-4.1-9.61-4.68-13.71-1.12Z"/>
        </g>
        <g>
          <circle class="cls-6" cx="1335.14" cy="661.38" r="2.57"/>
          <circle class="cls-6" cx="1289.3" cy="642.07" r="2.57"/>
          <circle class="cls-6" cx="1297.34" cy="627.21" r="2.57"/>
          <circle class="cls-6" cx="1314.78" cy="647.77" r="2.57"/>
          <circle class="cls-50" cx="1344.03" cy="637.81" r="2.57"/>
          <circle class="cls-50" cx="1328.88" cy="620.88" r="2.57"/>
          <circle class="cls-6" cx="1281.58" cy="609.65" r="2.57"/>
          <circle class="cls-50" cx="1296.27" cy="591.3" r="2.57"/>
          <circle class="cls-50" cx="1323.13" cy="597.85" r="2.57"/>
        </g>
      </g>
      <g>
        <g>
          <path class="cls-41" d="M617.61,62.37s-7.71,18.24-7.74,19.46,5.7,15.56,19.82,10.51c18.6-6.66,9.31-16.16,9.31-16.16,0,0-10.38-24.66-17.91-20.39s-3.49,6.58-3.49,6.58Z"/>
          <path class="cls-33" d="M624.41,51.49s16.11-2.03,31.72,5.47,18.17,11.54,16.11,14.89-16.27,7.17-19.51,6.28c0,0-6.32,4.91-11.15,2.35,0,0-13.18-22.8-18.55-25.07l1.39-3.91Z"/>
          <circle class="cls-63" cx="665.74" cy="69.53" r="2.83"/>
          <circle class="cls-63" cx="658.97" cy="72.56" r="2.28"/>
          <circle class="cls-63" cx="646.31" cy="76.58" r="2.28"/>
          <circle class="cls-63" cx="622.25" cy="86.13" r="4.83"/>
          <path class="cls-41" d="M615.19,61.09s-10.77,16.62-11.77,17.33-16.08,4.02-19.82-10.51c-4.93-19.13,8.15-16.78,8.15-16.78,0,0,26.23-5.25,26.93,3.37s-3.49,6.58-3.49,6.58Z"/>
          <path class="cls-33" d="M620.38,49.35s-7.36-14.48-22.33-23.18c-14.97-8.71-19.75-8.56-21.36-4.97-1.61,3.58,3.2,17.49,5.76,19.67,0,0-.52,7.99,4.32,10.55,0,0,26.27-1.88,31.16,1.28l2.46-3.35Z"/>
          <circle class="cls-63" cx="582.25" cy="25.27" r="2.83"/>
          <circle class="cls-63" cx="583.54" cy="32.57" r="2.28"/>
          <circle class="cls-63" cx="587.32" cy="45.31" r="2.28"/>
          <circle class="cls-63" cx="592.92" cy="70.57" r="4.83"/>
          <ellipse class="cls-64" cx="622.76" cy="49.54" rx="3.47" ry="2.37" transform="translate(287.3 576.56) rotate(-62.07)"/>
          <path class="cls-72" d="M624.89,47.26s3.49-.94,7.43-3.5c.93-.6,5.94-4.39,6.63-2.58"/>
          <path class="cls-72" d="M623.68,46.62s-1.18-3.41-1.28-8.11c-.02-1.11.3-7.38-1.59-6.93"/>
        </g>
        <path class="cls-2" d="M623.64,49.38l-1.17-.62c-1.1-.58-2.48-.16-3.07.94l-5.22,9.85c-.1.18-.17.37-.21.56-.5,2.24-1.19,4.43-2.26,6.46l-3.91,7.38c-.44.84-.22,1.9.57,2.42.91.6,2.12.28,2.62-.66l3.94-7.43c1.07-2.03,2.5-3.83,4.07-5.5.13-.14.25-.31.35-.49l5.22-9.85c.58-1.1.16-2.48-.94-3.07Z"/>
      </g>
      <g>
        <path class="cls-54" d="M1519.36,119.94l36.14-4.43.55-18.38-4.51-6.7s-20.26-12.67-37.45,4.43l-2.66,18.78,7.93,6.3Z"/>
        <path class="cls-15" d="M1490.18,236.06l22.5,23,56.97-117.48s7.59-16.59,2.93-27.2l-21.09-24.26s6.22,11.66-17.62,58.14c-10.06,19.62-43.69,87.8-43.69,87.8Z"/>
        <path class="cls-63" d="M1608.79,221.53l-16.29,27.75-83.64-100.26s-11.37-14.27-9.41-25.69l14.61-28.63s-3.22,12.81,31.13,52.17c14.5,16.61,63.59,74.67,63.59,74.67Z"/>
      </g>
    </g>
  </g>
  <g id="full-2" data-name="full">
    <g class="cls-83">
      <g class="cls-80">
        <rect class="cls-36" x="-125.39" y="476.13" width="2172.23" height="1447.55"/>
        <g class="cls-85">
          <circle class="cls-36" cx="960.73" cy="1199.91" r="901.93"/>
        </g>
        <circle class="cls-56" cx="959.89" cy="1199.91" r="727.49"/>
      </g>
    </g>
  </g>
</svg>